<mxfile host="app.diagrams.net" agent="Mozilla/5.0 (Windows NT 10.0; Win64; x64) AppleWebKit/537.36 (KHTML, like Gecko) Chrome/131.0.0.0 Safari/537.36 Edg/131.0.0.0" version="24.9.0">
  <diagram name="Page-1" id="wGpxztbfAEOtddkVLrGc">
    <mxGraphModel dx="2153" dy="706" grid="1" gridSize="10" guides="1" tooltips="1" connect="1" arrows="1" fold="1" page="1" pageScale="1" pageWidth="850" pageHeight="1100" math="0" shadow="0">
      <root>
        <mxCell id="0" />
        <mxCell id="1" parent="0" />
        <mxCell id="5NVZFzIgTWXD4TzpRUED-3" value="" style="edgeStyle=orthogonalEdgeStyle;rounded=0;orthogonalLoop=1;jettySize=auto;html=1;" edge="1" parent="1" source="5NVZFzIgTWXD4TzpRUED-1" target="5NVZFzIgTWXD4TzpRUED-2">
          <mxGeometry relative="1" as="geometry" />
        </mxCell>
        <mxCell id="5NVZFzIgTWXD4TzpRUED-1" value="&lt;font data-font-src=&quot;https://fonts.googleapis.com/css?family=Sarabun&quot; face=&quot;Sarabun&quot;&gt;Start&lt;/font&gt;" style="ellipse;whiteSpace=wrap;html=1;" vertex="1" parent="1">
          <mxGeometry x="-740.0000000000001" y="70" width="130" height="30" as="geometry" />
        </mxCell>
        <mxCell id="5NVZFzIgTWXD4TzpRUED-5" value="" style="edgeStyle=orthogonalEdgeStyle;rounded=0;orthogonalLoop=1;jettySize=auto;html=1;" edge="1" parent="1" source="5NVZFzIgTWXD4TzpRUED-2" target="5NVZFzIgTWXD4TzpRUED-4">
          <mxGeometry relative="1" as="geometry" />
        </mxCell>
        <mxCell id="5NVZFzIgTWXD4TzpRUED-2" value="กำหนดตัวแปร input" style="rounded=0;whiteSpace=wrap;html=1;" vertex="1" parent="1">
          <mxGeometry x="-740.0000000000001" y="130" width="130" height="40" as="geometry" />
        </mxCell>
        <mxCell id="5NVZFzIgTWXD4TzpRUED-7" value="" style="edgeStyle=orthogonalEdgeStyle;rounded=0;orthogonalLoop=1;jettySize=auto;html=1;" edge="1" parent="1" source="5NVZFzIgTWXD4TzpRUED-4">
          <mxGeometry relative="1" as="geometry">
            <mxPoint x="-675" y="270" as="targetPoint" />
          </mxGeometry>
        </mxCell>
        <mxCell id="5NVZFzIgTWXD4TzpRUED-4" value="กรอกค่า input" style="shape=parallelogram;perimeter=parallelogramPerimeter;whiteSpace=wrap;html=1;fixedSize=1;" vertex="1" parent="1">
          <mxGeometry x="-740.0000000000001" y="200" width="130" height="40" as="geometry" />
        </mxCell>
        <mxCell id="5NVZFzIgTWXD4TzpRUED-14" value="" style="edgeStyle=orthogonalEdgeStyle;rounded=0;orthogonalLoop=1;jettySize=auto;html=1;" edge="1" parent="1" source="5NVZFzIgTWXD4TzpRUED-12" target="5NVZFzIgTWXD4TzpRUED-13">
          <mxGeometry relative="1" as="geometry" />
        </mxCell>
        <mxCell id="5NVZFzIgTWXD4TzpRUED-43" value="" style="edgeStyle=orthogonalEdgeStyle;rounded=0;orthogonalLoop=1;jettySize=auto;html=1;" edge="1" parent="1" source="5NVZFzIgTWXD4TzpRUED-12" target="5NVZFzIgTWXD4TzpRUED-42">
          <mxGeometry relative="1" as="geometry" />
        </mxCell>
        <mxCell id="5NVZFzIgTWXD4TzpRUED-12" value="1" style="rhombus;whiteSpace=wrap;html=1;" vertex="1" parent="1">
          <mxGeometry x="-731.25" y="350" width="112.5" height="50" as="geometry" />
        </mxCell>
        <mxCell id="5NVZFzIgTWXD4TzpRUED-16" value="" style="edgeStyle=orthogonalEdgeStyle;rounded=0;orthogonalLoop=1;jettySize=auto;html=1;" edge="1" parent="1" source="5NVZFzIgTWXD4TzpRUED-13" target="5NVZFzIgTWXD4TzpRUED-15">
          <mxGeometry relative="1" as="geometry" />
        </mxCell>
        <mxCell id="5NVZFzIgTWXD4TzpRUED-46" value="" style="edgeStyle=orthogonalEdgeStyle;rounded=0;orthogonalLoop=1;jettySize=auto;html=1;" edge="1" parent="1" source="5NVZFzIgTWXD4TzpRUED-13" target="5NVZFzIgTWXD4TzpRUED-45">
          <mxGeometry relative="1" as="geometry" />
        </mxCell>
        <mxCell id="5NVZFzIgTWXD4TzpRUED-13" value="2" style="rhombus;whiteSpace=wrap;html=1;" vertex="1" parent="1">
          <mxGeometry x="-731.25" y="420" width="112.5" height="50" as="geometry" />
        </mxCell>
        <mxCell id="5NVZFzIgTWXD4TzpRUED-18" value="" style="edgeStyle=orthogonalEdgeStyle;rounded=0;orthogonalLoop=1;jettySize=auto;html=1;" edge="1" parent="1" source="5NVZFzIgTWXD4TzpRUED-15" target="5NVZFzIgTWXD4TzpRUED-17">
          <mxGeometry relative="1" as="geometry" />
        </mxCell>
        <mxCell id="5NVZFzIgTWXD4TzpRUED-148" value="" style="edgeStyle=orthogonalEdgeStyle;rounded=0;orthogonalLoop=1;jettySize=auto;html=1;" edge="1" parent="1" source="5NVZFzIgTWXD4TzpRUED-15" target="5NVZFzIgTWXD4TzpRUED-48">
          <mxGeometry relative="1" as="geometry" />
        </mxCell>
        <mxCell id="5NVZFzIgTWXD4TzpRUED-15" value="3" style="rhombus;whiteSpace=wrap;html=1;" vertex="1" parent="1">
          <mxGeometry x="-731.25" y="490" width="112.5" height="50" as="geometry" />
        </mxCell>
        <mxCell id="5NVZFzIgTWXD4TzpRUED-20" value="" style="edgeStyle=orthogonalEdgeStyle;rounded=0;orthogonalLoop=1;jettySize=auto;html=1;" edge="1" parent="1" source="5NVZFzIgTWXD4TzpRUED-17" target="5NVZFzIgTWXD4TzpRUED-19">
          <mxGeometry relative="1" as="geometry" />
        </mxCell>
        <mxCell id="5NVZFzIgTWXD4TzpRUED-146" value="" style="edgeStyle=orthogonalEdgeStyle;rounded=0;orthogonalLoop=1;jettySize=auto;html=1;" edge="1" parent="1" source="5NVZFzIgTWXD4TzpRUED-17" target="5NVZFzIgTWXD4TzpRUED-50">
          <mxGeometry relative="1" as="geometry" />
        </mxCell>
        <mxCell id="5NVZFzIgTWXD4TzpRUED-17" value="4" style="rhombus;whiteSpace=wrap;html=1;" vertex="1" parent="1">
          <mxGeometry x="-731.25" y="560" width="112.5" height="50" as="geometry" />
        </mxCell>
        <mxCell id="5NVZFzIgTWXD4TzpRUED-22" value="" style="edgeStyle=orthogonalEdgeStyle;rounded=0;orthogonalLoop=1;jettySize=auto;html=1;" edge="1" parent="1" source="5NVZFzIgTWXD4TzpRUED-19" target="5NVZFzIgTWXD4TzpRUED-21">
          <mxGeometry relative="1" as="geometry" />
        </mxCell>
        <mxCell id="5NVZFzIgTWXD4TzpRUED-144" value="" style="edgeStyle=orthogonalEdgeStyle;rounded=0;orthogonalLoop=1;jettySize=auto;html=1;" edge="1" parent="1" source="5NVZFzIgTWXD4TzpRUED-19" target="5NVZFzIgTWXD4TzpRUED-52">
          <mxGeometry relative="1" as="geometry" />
        </mxCell>
        <mxCell id="5NVZFzIgTWXD4TzpRUED-19" value="5" style="rhombus;whiteSpace=wrap;html=1;" vertex="1" parent="1">
          <mxGeometry x="-731.25" y="630" width="112.5" height="50" as="geometry" />
        </mxCell>
        <mxCell id="5NVZFzIgTWXD4TzpRUED-24" value="" style="edgeStyle=orthogonalEdgeStyle;rounded=0;orthogonalLoop=1;jettySize=auto;html=1;" edge="1" parent="1" source="5NVZFzIgTWXD4TzpRUED-21" target="5NVZFzIgTWXD4TzpRUED-23">
          <mxGeometry relative="1" as="geometry" />
        </mxCell>
        <mxCell id="5NVZFzIgTWXD4TzpRUED-166" value="" style="edgeStyle=orthogonalEdgeStyle;rounded=0;orthogonalLoop=1;jettySize=auto;html=1;" edge="1" parent="1" source="5NVZFzIgTWXD4TzpRUED-21" target="5NVZFzIgTWXD4TzpRUED-54">
          <mxGeometry relative="1" as="geometry" />
        </mxCell>
        <mxCell id="5NVZFzIgTWXD4TzpRUED-21" value="6" style="rhombus;whiteSpace=wrap;html=1;" vertex="1" parent="1">
          <mxGeometry x="-731.25" y="700" width="112.5" height="50" as="geometry" />
        </mxCell>
        <mxCell id="5NVZFzIgTWXD4TzpRUED-27" value="" style="edgeStyle=orthogonalEdgeStyle;rounded=0;orthogonalLoop=1;jettySize=auto;html=1;" edge="1" parent="1" source="5NVZFzIgTWXD4TzpRUED-23" target="5NVZFzIgTWXD4TzpRUED-25">
          <mxGeometry relative="1" as="geometry" />
        </mxCell>
        <mxCell id="5NVZFzIgTWXD4TzpRUED-169" value="" style="edgeStyle=orthogonalEdgeStyle;rounded=0;orthogonalLoop=1;jettySize=auto;html=1;" edge="1" parent="1" source="5NVZFzIgTWXD4TzpRUED-23" target="5NVZFzIgTWXD4TzpRUED-56">
          <mxGeometry relative="1" as="geometry" />
        </mxCell>
        <mxCell id="5NVZFzIgTWXD4TzpRUED-23" value="7" style="rhombus;whiteSpace=wrap;html=1;" vertex="1" parent="1">
          <mxGeometry x="-731.25" y="770" width="112.5" height="50" as="geometry" />
        </mxCell>
        <mxCell id="5NVZFzIgTWXD4TzpRUED-29" value="" style="edgeStyle=orthogonalEdgeStyle;rounded=0;orthogonalLoop=1;jettySize=auto;html=1;" edge="1" parent="1" source="5NVZFzIgTWXD4TzpRUED-25" target="5NVZFzIgTWXD4TzpRUED-28">
          <mxGeometry relative="1" as="geometry" />
        </mxCell>
        <mxCell id="5NVZFzIgTWXD4TzpRUED-172" value="" style="edgeStyle=orthogonalEdgeStyle;rounded=0;orthogonalLoop=1;jettySize=auto;html=1;" edge="1" parent="1" source="5NVZFzIgTWXD4TzpRUED-25" target="5NVZFzIgTWXD4TzpRUED-58">
          <mxGeometry relative="1" as="geometry" />
        </mxCell>
        <mxCell id="5NVZFzIgTWXD4TzpRUED-25" value="8" style="rhombus;whiteSpace=wrap;html=1;" vertex="1" parent="1">
          <mxGeometry x="-731.25" y="840" width="112.5" height="50" as="geometry" />
        </mxCell>
        <mxCell id="5NVZFzIgTWXD4TzpRUED-31" value="" style="edgeStyle=orthogonalEdgeStyle;rounded=0;orthogonalLoop=1;jettySize=auto;html=1;" edge="1" parent="1" source="5NVZFzIgTWXD4TzpRUED-28" target="5NVZFzIgTWXD4TzpRUED-30">
          <mxGeometry relative="1" as="geometry" />
        </mxCell>
        <mxCell id="5NVZFzIgTWXD4TzpRUED-174" value="" style="edgeStyle=orthogonalEdgeStyle;rounded=0;orthogonalLoop=1;jettySize=auto;html=1;" edge="1" parent="1" source="5NVZFzIgTWXD4TzpRUED-28" target="5NVZFzIgTWXD4TzpRUED-60">
          <mxGeometry relative="1" as="geometry" />
        </mxCell>
        <mxCell id="5NVZFzIgTWXD4TzpRUED-28" value="9" style="rhombus;whiteSpace=wrap;html=1;" vertex="1" parent="1">
          <mxGeometry x="-731.25" y="920" width="112.5" height="50" as="geometry" />
        </mxCell>
        <mxCell id="5NVZFzIgTWXD4TzpRUED-33" value="" style="edgeStyle=orthogonalEdgeStyle;rounded=0;orthogonalLoop=1;jettySize=auto;html=1;" edge="1" parent="1" source="5NVZFzIgTWXD4TzpRUED-30" target="5NVZFzIgTWXD4TzpRUED-32">
          <mxGeometry relative="1" as="geometry" />
        </mxCell>
        <mxCell id="5NVZFzIgTWXD4TzpRUED-176" value="" style="edgeStyle=orthogonalEdgeStyle;rounded=0;orthogonalLoop=1;jettySize=auto;html=1;" edge="1" parent="1" source="5NVZFzIgTWXD4TzpRUED-30" target="5NVZFzIgTWXD4TzpRUED-62">
          <mxGeometry relative="1" as="geometry" />
        </mxCell>
        <mxCell id="5NVZFzIgTWXD4TzpRUED-30" value="10" style="rhombus;whiteSpace=wrap;html=1;" vertex="1" parent="1">
          <mxGeometry x="-731.25" y="1010" width="112.5" height="50" as="geometry" />
        </mxCell>
        <mxCell id="5NVZFzIgTWXD4TzpRUED-35" value="" style="edgeStyle=orthogonalEdgeStyle;rounded=0;orthogonalLoop=1;jettySize=auto;html=1;" edge="1" parent="1" source="5NVZFzIgTWXD4TzpRUED-32" target="5NVZFzIgTWXD4TzpRUED-34">
          <mxGeometry relative="1" as="geometry" />
        </mxCell>
        <mxCell id="5NVZFzIgTWXD4TzpRUED-178" value="" style="edgeStyle=orthogonalEdgeStyle;rounded=0;orthogonalLoop=1;jettySize=auto;html=1;" edge="1" parent="1" source="5NVZFzIgTWXD4TzpRUED-32" target="5NVZFzIgTWXD4TzpRUED-67">
          <mxGeometry relative="1" as="geometry" />
        </mxCell>
        <mxCell id="5NVZFzIgTWXD4TzpRUED-32" value="11" style="rhombus;whiteSpace=wrap;html=1;" vertex="1" parent="1">
          <mxGeometry x="-731.25" y="1100" width="112.5" height="50" as="geometry" />
        </mxCell>
        <mxCell id="5NVZFzIgTWXD4TzpRUED-37" value="" style="edgeStyle=orthogonalEdgeStyle;rounded=0;orthogonalLoop=1;jettySize=auto;html=1;" edge="1" parent="1" source="5NVZFzIgTWXD4TzpRUED-34" target="5NVZFzIgTWXD4TzpRUED-36">
          <mxGeometry relative="1" as="geometry" />
        </mxCell>
        <mxCell id="5NVZFzIgTWXD4TzpRUED-181" value="" style="edgeStyle=orthogonalEdgeStyle;rounded=0;orthogonalLoop=1;jettySize=auto;html=1;" edge="1" parent="1" source="5NVZFzIgTWXD4TzpRUED-34" target="5NVZFzIgTWXD4TzpRUED-69">
          <mxGeometry relative="1" as="geometry" />
        </mxCell>
        <mxCell id="5NVZFzIgTWXD4TzpRUED-34" value="12" style="rhombus;whiteSpace=wrap;html=1;" vertex="1" parent="1">
          <mxGeometry x="-731.25" y="1180" width="112.5" height="50" as="geometry" />
        </mxCell>
        <mxCell id="5NVZFzIgTWXD4TzpRUED-39" value="" style="edgeStyle=orthogonalEdgeStyle;rounded=0;orthogonalLoop=1;jettySize=auto;html=1;" edge="1" parent="1" source="5NVZFzIgTWXD4TzpRUED-36" target="5NVZFzIgTWXD4TzpRUED-38">
          <mxGeometry relative="1" as="geometry" />
        </mxCell>
        <mxCell id="5NVZFzIgTWXD4TzpRUED-184" value="" style="edgeStyle=orthogonalEdgeStyle;rounded=0;orthogonalLoop=1;jettySize=auto;html=1;" edge="1" parent="1" source="5NVZFzIgTWXD4TzpRUED-36" target="5NVZFzIgTWXD4TzpRUED-71">
          <mxGeometry relative="1" as="geometry" />
        </mxCell>
        <mxCell id="5NVZFzIgTWXD4TzpRUED-36" value="13" style="rhombus;whiteSpace=wrap;html=1;" vertex="1" parent="1">
          <mxGeometry x="-731.25" y="1270" width="112.5" height="50" as="geometry" />
        </mxCell>
        <mxCell id="5NVZFzIgTWXD4TzpRUED-41" value="" style="edgeStyle=orthogonalEdgeStyle;rounded=0;orthogonalLoop=1;jettySize=auto;html=1;" edge="1" parent="1" source="5NVZFzIgTWXD4TzpRUED-38" target="5NVZFzIgTWXD4TzpRUED-40">
          <mxGeometry relative="1" as="geometry" />
        </mxCell>
        <mxCell id="5NVZFzIgTWXD4TzpRUED-187" value="" style="edgeStyle=orthogonalEdgeStyle;rounded=0;orthogonalLoop=1;jettySize=auto;html=1;" edge="1" parent="1" source="5NVZFzIgTWXD4TzpRUED-38" target="5NVZFzIgTWXD4TzpRUED-73">
          <mxGeometry relative="1" as="geometry" />
        </mxCell>
        <mxCell id="5NVZFzIgTWXD4TzpRUED-38" value="14" style="rhombus;whiteSpace=wrap;html=1;" vertex="1" parent="1">
          <mxGeometry x="-731.25" y="1350" width="112.5" height="50" as="geometry" />
        </mxCell>
        <mxCell id="5NVZFzIgTWXD4TzpRUED-92" value="" style="edgeStyle=orthogonalEdgeStyle;rounded=0;orthogonalLoop=1;jettySize=auto;html=1;" edge="1" parent="1" source="5NVZFzIgTWXD4TzpRUED-40" target="5NVZFzIgTWXD4TzpRUED-79">
          <mxGeometry relative="1" as="geometry" />
        </mxCell>
        <mxCell id="5NVZFzIgTWXD4TzpRUED-190" value="" style="edgeStyle=orthogonalEdgeStyle;rounded=0;orthogonalLoop=1;jettySize=auto;html=1;" edge="1" parent="1" source="5NVZFzIgTWXD4TzpRUED-40" target="5NVZFzIgTWXD4TzpRUED-75">
          <mxGeometry relative="1" as="geometry" />
        </mxCell>
        <mxCell id="5NVZFzIgTWXD4TzpRUED-40" value="15" style="rhombus;whiteSpace=wrap;html=1;" vertex="1" parent="1">
          <mxGeometry x="-731.25" y="1430" width="112.5" height="50" as="geometry" />
        </mxCell>
        <mxCell id="5NVZFzIgTWXD4TzpRUED-163" value="" style="edgeStyle=orthogonalEdgeStyle;rounded=0;orthogonalLoop=1;jettySize=auto;html=1;" edge="1" parent="1" source="5NVZFzIgTWXD4TzpRUED-42" target="5NVZFzIgTWXD4TzpRUED-162">
          <mxGeometry relative="1" as="geometry" />
        </mxCell>
        <mxCell id="5NVZFzIgTWXD4TzpRUED-42" value="&lt;span style=&quot;font-family: &amp;quot;Times New Roman&amp;quot;; font-size: medium; text-align: start;&quot;&gt;one&lt;/span&gt;" style="rounded=0;whiteSpace=wrap;html=1;shape=parallelogram;fixedSize=1;perimeter=parallelogramPerimeter;" vertex="1" parent="1">
          <mxGeometry x="-570.0000000000001" y="355" width="130" height="40" as="geometry" />
        </mxCell>
        <mxCell id="5NVZFzIgTWXD4TzpRUED-141" value="" style="edgeStyle=orthogonalEdgeStyle;rounded=0;orthogonalLoop=1;jettySize=auto;html=1;" edge="1" parent="1" source="5NVZFzIgTWXD4TzpRUED-44" target="5NVZFzIgTWXD4TzpRUED-49">
          <mxGeometry relative="1" as="geometry" />
        </mxCell>
        <mxCell id="5NVZFzIgTWXD4TzpRUED-44" value="" style="ellipse;whiteSpace=wrap;html=1;aspect=fixed;" vertex="1" parent="1">
          <mxGeometry x="-370" y="435" width="20" height="20" as="geometry" />
        </mxCell>
        <mxCell id="5NVZFzIgTWXD4TzpRUED-47" value="" style="edgeStyle=orthogonalEdgeStyle;rounded=0;orthogonalLoop=1;jettySize=auto;html=1;" edge="1" parent="1" source="5NVZFzIgTWXD4TzpRUED-45" target="5NVZFzIgTWXD4TzpRUED-44">
          <mxGeometry relative="1" as="geometry" />
        </mxCell>
        <mxCell id="5NVZFzIgTWXD4TzpRUED-45" value="&lt;span style=&quot;font-family: &amp;quot;Times New Roman&amp;quot;; font-size: medium; text-align: start;&quot;&gt;two&lt;/span&gt;" style="rounded=0;whiteSpace=wrap;html=1;shape=parallelogram;fixedSize=1;perimeter=parallelogramPerimeter;" vertex="1" parent="1">
          <mxGeometry x="-570.0000000000001" y="425" width="130" height="40" as="geometry" />
        </mxCell>
        <mxCell id="5NVZFzIgTWXD4TzpRUED-149" value="" style="edgeStyle=orthogonalEdgeStyle;rounded=0;orthogonalLoop=1;jettySize=auto;html=1;" edge="1" parent="1" source="5NVZFzIgTWXD4TzpRUED-48" target="5NVZFzIgTWXD4TzpRUED-49">
          <mxGeometry relative="1" as="geometry" />
        </mxCell>
        <mxCell id="5NVZFzIgTWXD4TzpRUED-48" value="&lt;span style=&quot;font-family: &amp;quot;Times New Roman&amp;quot;; font-size: medium; text-align: start;&quot;&gt;three&lt;/span&gt;" style="rounded=0;whiteSpace=wrap;html=1;shape=parallelogram;fixedSize=1;perimeter=parallelogramPerimeter;" vertex="1" parent="1">
          <mxGeometry x="-570.0000000000001" y="495" width="130" height="40" as="geometry" />
        </mxCell>
        <mxCell id="5NVZFzIgTWXD4TzpRUED-142" value="" style="edgeStyle=orthogonalEdgeStyle;rounded=0;orthogonalLoop=1;jettySize=auto;html=1;" edge="1" parent="1" source="5NVZFzIgTWXD4TzpRUED-49" target="5NVZFzIgTWXD4TzpRUED-51">
          <mxGeometry relative="1" as="geometry" />
        </mxCell>
        <mxCell id="5NVZFzIgTWXD4TzpRUED-49" value="" style="ellipse;whiteSpace=wrap;html=1;aspect=fixed;" vertex="1" parent="1">
          <mxGeometry x="-370" y="505" width="20" height="20" as="geometry" />
        </mxCell>
        <mxCell id="5NVZFzIgTWXD4TzpRUED-147" value="" style="edgeStyle=orthogonalEdgeStyle;rounded=0;orthogonalLoop=1;jettySize=auto;html=1;" edge="1" parent="1" source="5NVZFzIgTWXD4TzpRUED-50" target="5NVZFzIgTWXD4TzpRUED-51">
          <mxGeometry relative="1" as="geometry" />
        </mxCell>
        <mxCell id="5NVZFzIgTWXD4TzpRUED-50" value="&lt;span style=&quot;font-family: &amp;quot;Times New Roman&amp;quot;; font-size: medium; text-align: start;&quot;&gt;four&lt;/span&gt;" style="rounded=0;whiteSpace=wrap;html=1;shape=parallelogram;fixedSize=1;perimeter=parallelogramPerimeter;" vertex="1" parent="1">
          <mxGeometry x="-570.0000000000001" y="565" width="130" height="40" as="geometry" />
        </mxCell>
        <mxCell id="5NVZFzIgTWXD4TzpRUED-143" value="" style="edgeStyle=orthogonalEdgeStyle;rounded=0;orthogonalLoop=1;jettySize=auto;html=1;" edge="1" parent="1" source="5NVZFzIgTWXD4TzpRUED-51" target="5NVZFzIgTWXD4TzpRUED-53">
          <mxGeometry relative="1" as="geometry" />
        </mxCell>
        <mxCell id="5NVZFzIgTWXD4TzpRUED-51" value="" style="ellipse;whiteSpace=wrap;html=1;aspect=fixed;" vertex="1" parent="1">
          <mxGeometry x="-370" y="575" width="20" height="20" as="geometry" />
        </mxCell>
        <mxCell id="5NVZFzIgTWXD4TzpRUED-145" value="" style="edgeStyle=orthogonalEdgeStyle;rounded=0;orthogonalLoop=1;jettySize=auto;html=1;" edge="1" parent="1" source="5NVZFzIgTWXD4TzpRUED-52" target="5NVZFzIgTWXD4TzpRUED-53">
          <mxGeometry relative="1" as="geometry" />
        </mxCell>
        <mxCell id="5NVZFzIgTWXD4TzpRUED-52" value="&lt;span style=&quot;font-family: &amp;quot;Times New Roman&amp;quot;; font-size: medium; text-align: start;&quot;&gt;five&lt;/span&gt;" style="rounded=0;whiteSpace=wrap;html=1;shape=parallelogram;fixedSize=1;perimeter=parallelogramPerimeter;" vertex="1" parent="1">
          <mxGeometry x="-570.0000000000001" y="635" width="130" height="40" as="geometry" />
        </mxCell>
        <mxCell id="5NVZFzIgTWXD4TzpRUED-168" value="" style="edgeStyle=orthogonalEdgeStyle;rounded=0;orthogonalLoop=1;jettySize=auto;html=1;" edge="1" parent="1" source="5NVZFzIgTWXD4TzpRUED-53" target="5NVZFzIgTWXD4TzpRUED-55">
          <mxGeometry relative="1" as="geometry" />
        </mxCell>
        <mxCell id="5NVZFzIgTWXD4TzpRUED-53" value="" style="ellipse;whiteSpace=wrap;html=1;aspect=fixed;" vertex="1" parent="1">
          <mxGeometry x="-370" y="645" width="20" height="20" as="geometry" />
        </mxCell>
        <mxCell id="5NVZFzIgTWXD4TzpRUED-167" value="" style="edgeStyle=orthogonalEdgeStyle;rounded=0;orthogonalLoop=1;jettySize=auto;html=1;" edge="1" parent="1" source="5NVZFzIgTWXD4TzpRUED-54" target="5NVZFzIgTWXD4TzpRUED-55">
          <mxGeometry relative="1" as="geometry" />
        </mxCell>
        <mxCell id="5NVZFzIgTWXD4TzpRUED-54" value="&lt;span style=&quot;font-family: &amp;quot;Times New Roman&amp;quot;; font-size: medium; text-align: start;&quot;&gt;six&lt;/span&gt;" style="rounded=0;whiteSpace=wrap;html=1;shape=parallelogram;perimeter=parallelogramPerimeter;fixedSize=1;" vertex="1" parent="1">
          <mxGeometry x="-570.0000000000001" y="705" width="130" height="40" as="geometry" />
        </mxCell>
        <mxCell id="5NVZFzIgTWXD4TzpRUED-170" value="" style="edgeStyle=orthogonalEdgeStyle;rounded=0;orthogonalLoop=1;jettySize=auto;html=1;" edge="1" parent="1" source="5NVZFzIgTWXD4TzpRUED-55" target="5NVZFzIgTWXD4TzpRUED-57">
          <mxGeometry relative="1" as="geometry" />
        </mxCell>
        <mxCell id="5NVZFzIgTWXD4TzpRUED-55" value="" style="ellipse;whiteSpace=wrap;html=1;aspect=fixed;" vertex="1" parent="1">
          <mxGeometry x="-370" y="715" width="20" height="20" as="geometry" />
        </mxCell>
        <mxCell id="5NVZFzIgTWXD4TzpRUED-171" value="" style="edgeStyle=orthogonalEdgeStyle;rounded=0;orthogonalLoop=1;jettySize=auto;html=1;" edge="1" parent="1" source="5NVZFzIgTWXD4TzpRUED-56" target="5NVZFzIgTWXD4TzpRUED-57">
          <mxGeometry relative="1" as="geometry" />
        </mxCell>
        <mxCell id="5NVZFzIgTWXD4TzpRUED-56" value="&lt;span style=&quot;font-family: &amp;quot;Times New Roman&amp;quot;; font-size: medium; text-align: start;&quot;&gt;seven&lt;/span&gt;" style="rounded=0;whiteSpace=wrap;html=1;shape=parallelogram;perimeter=parallelogramPerimeter;fixedSize=1;" vertex="1" parent="1">
          <mxGeometry x="-570.0000000000001" y="775" width="130" height="40" as="geometry" />
        </mxCell>
        <mxCell id="5NVZFzIgTWXD4TzpRUED-66" value="" style="edgeStyle=orthogonalEdgeStyle;rounded=0;orthogonalLoop=1;jettySize=auto;html=1;" edge="1" parent="1" source="5NVZFzIgTWXD4TzpRUED-57" target="5NVZFzIgTWXD4TzpRUED-59">
          <mxGeometry relative="1" as="geometry" />
        </mxCell>
        <mxCell id="5NVZFzIgTWXD4TzpRUED-57" value="" style="ellipse;whiteSpace=wrap;html=1;aspect=fixed;" vertex="1" parent="1">
          <mxGeometry x="-370" y="785" width="20" height="20" as="geometry" />
        </mxCell>
        <mxCell id="5NVZFzIgTWXD4TzpRUED-173" value="" style="edgeStyle=orthogonalEdgeStyle;rounded=0;orthogonalLoop=1;jettySize=auto;html=1;" edge="1" parent="1" source="5NVZFzIgTWXD4TzpRUED-58" target="5NVZFzIgTWXD4TzpRUED-59">
          <mxGeometry relative="1" as="geometry" />
        </mxCell>
        <mxCell id="5NVZFzIgTWXD4TzpRUED-58" value="&lt;span style=&quot;font-family: &amp;quot;Times New Roman&amp;quot;; font-size: medium; text-align: start;&quot;&gt;eight&lt;/span&gt;" style="rounded=0;whiteSpace=wrap;html=1;shape=parallelogram;perimeter=parallelogramPerimeter;fixedSize=1;" vertex="1" parent="1">
          <mxGeometry x="-570.0000000000001" y="845" width="130" height="40" as="geometry" />
        </mxCell>
        <mxCell id="5NVZFzIgTWXD4TzpRUED-65" value="" style="edgeStyle=orthogonalEdgeStyle;rounded=0;orthogonalLoop=1;jettySize=auto;html=1;" edge="1" parent="1" source="5NVZFzIgTWXD4TzpRUED-59" target="5NVZFzIgTWXD4TzpRUED-61">
          <mxGeometry relative="1" as="geometry" />
        </mxCell>
        <mxCell id="5NVZFzIgTWXD4TzpRUED-59" value="" style="ellipse;whiteSpace=wrap;html=1;aspect=fixed;" vertex="1" parent="1">
          <mxGeometry x="-370" y="855" width="20" height="20" as="geometry" />
        </mxCell>
        <mxCell id="5NVZFzIgTWXD4TzpRUED-175" value="" style="edgeStyle=orthogonalEdgeStyle;rounded=0;orthogonalLoop=1;jettySize=auto;html=1;" edge="1" parent="1" source="5NVZFzIgTWXD4TzpRUED-60" target="5NVZFzIgTWXD4TzpRUED-61">
          <mxGeometry relative="1" as="geometry" />
        </mxCell>
        <mxCell id="5NVZFzIgTWXD4TzpRUED-60" value="&lt;span style=&quot;font-family: &amp;quot;Times New Roman&amp;quot;; font-size: medium; text-align: start;&quot;&gt;nine&lt;/span&gt;" style="rounded=0;whiteSpace=wrap;html=1;shape=parallelogram;perimeter=parallelogramPerimeter;fixedSize=1;" vertex="1" parent="1">
          <mxGeometry x="-570.0000000000001" y="925" width="130" height="40" as="geometry" />
        </mxCell>
        <mxCell id="5NVZFzIgTWXD4TzpRUED-64" value="" style="edgeStyle=orthogonalEdgeStyle;rounded=0;orthogonalLoop=1;jettySize=auto;html=1;" edge="1" parent="1" source="5NVZFzIgTWXD4TzpRUED-61" target="5NVZFzIgTWXD4TzpRUED-63">
          <mxGeometry relative="1" as="geometry" />
        </mxCell>
        <mxCell id="5NVZFzIgTWXD4TzpRUED-61" value="" style="ellipse;whiteSpace=wrap;html=1;aspect=fixed;" vertex="1" parent="1">
          <mxGeometry x="-370" y="935" width="20" height="20" as="geometry" />
        </mxCell>
        <mxCell id="5NVZFzIgTWXD4TzpRUED-177" value="" style="edgeStyle=orthogonalEdgeStyle;rounded=0;orthogonalLoop=1;jettySize=auto;html=1;" edge="1" parent="1" source="5NVZFzIgTWXD4TzpRUED-62" target="5NVZFzIgTWXD4TzpRUED-63">
          <mxGeometry relative="1" as="geometry" />
        </mxCell>
        <mxCell id="5NVZFzIgTWXD4TzpRUED-62" value="&lt;span style=&quot;font-family: &amp;quot;Times New Roman&amp;quot;; font-size: medium; text-align: start;&quot;&gt;ten&lt;/span&gt;" style="rounded=0;whiteSpace=wrap;html=1;shape=parallelogram;perimeter=parallelogramPerimeter;fixedSize=1;" vertex="1" parent="1">
          <mxGeometry x="-570.0000000000001" y="1015" width="130" height="40" as="geometry" />
        </mxCell>
        <mxCell id="5NVZFzIgTWXD4TzpRUED-180" value="" style="edgeStyle=orthogonalEdgeStyle;rounded=0;orthogonalLoop=1;jettySize=auto;html=1;" edge="1" parent="1" source="5NVZFzIgTWXD4TzpRUED-63" target="5NVZFzIgTWXD4TzpRUED-68">
          <mxGeometry relative="1" as="geometry" />
        </mxCell>
        <mxCell id="5NVZFzIgTWXD4TzpRUED-63" value="" style="ellipse;whiteSpace=wrap;html=1;aspect=fixed;" vertex="1" parent="1">
          <mxGeometry x="-370" y="1025" width="20" height="20" as="geometry" />
        </mxCell>
        <mxCell id="5NVZFzIgTWXD4TzpRUED-179" value="" style="edgeStyle=orthogonalEdgeStyle;rounded=0;orthogonalLoop=1;jettySize=auto;html=1;" edge="1" parent="1" source="5NVZFzIgTWXD4TzpRUED-67" target="5NVZFzIgTWXD4TzpRUED-68">
          <mxGeometry relative="1" as="geometry" />
        </mxCell>
        <mxCell id="5NVZFzIgTWXD4TzpRUED-67" value="&lt;span style=&quot;font-family: &amp;quot;Times New Roman&amp;quot;; font-size: medium; text-align: start;&quot;&gt;eleven&lt;/span&gt;" style="rounded=0;whiteSpace=wrap;html=1;shape=parallelogram;perimeter=parallelogramPerimeter;fixedSize=1;" vertex="1" parent="1">
          <mxGeometry x="-570.0000000000001" y="1105" width="130" height="40" as="geometry" />
        </mxCell>
        <mxCell id="5NVZFzIgTWXD4TzpRUED-183" value="" style="edgeStyle=orthogonalEdgeStyle;rounded=0;orthogonalLoop=1;jettySize=auto;html=1;" edge="1" parent="1" source="5NVZFzIgTWXD4TzpRUED-68" target="5NVZFzIgTWXD4TzpRUED-70">
          <mxGeometry relative="1" as="geometry" />
        </mxCell>
        <mxCell id="5NVZFzIgTWXD4TzpRUED-68" value="" style="ellipse;whiteSpace=wrap;html=1;aspect=fixed;" vertex="1" parent="1">
          <mxGeometry x="-370" y="1115" width="20" height="20" as="geometry" />
        </mxCell>
        <mxCell id="5NVZFzIgTWXD4TzpRUED-182" value="" style="edgeStyle=orthogonalEdgeStyle;rounded=0;orthogonalLoop=1;jettySize=auto;html=1;" edge="1" parent="1" source="5NVZFzIgTWXD4TzpRUED-69" target="5NVZFzIgTWXD4TzpRUED-70">
          <mxGeometry relative="1" as="geometry" />
        </mxCell>
        <mxCell id="5NVZFzIgTWXD4TzpRUED-69" value="&lt;span style=&quot;font-family: &amp;quot;Times New Roman&amp;quot;; font-size: medium; text-align: start;&quot;&gt;twelve&lt;/span&gt;" style="rounded=0;whiteSpace=wrap;html=1;shape=parallelogram;perimeter=parallelogramPerimeter;fixedSize=1;" vertex="1" parent="1">
          <mxGeometry x="-570.0000000000001" y="1185" width="130" height="40" as="geometry" />
        </mxCell>
        <mxCell id="5NVZFzIgTWXD4TzpRUED-186" value="" style="edgeStyle=orthogonalEdgeStyle;rounded=0;orthogonalLoop=1;jettySize=auto;html=1;" edge="1" parent="1" source="5NVZFzIgTWXD4TzpRUED-70" target="5NVZFzIgTWXD4TzpRUED-72">
          <mxGeometry relative="1" as="geometry" />
        </mxCell>
        <mxCell id="5NVZFzIgTWXD4TzpRUED-70" value="" style="ellipse;whiteSpace=wrap;html=1;aspect=fixed;" vertex="1" parent="1">
          <mxGeometry x="-370" y="1195" width="20" height="20" as="geometry" />
        </mxCell>
        <mxCell id="5NVZFzIgTWXD4TzpRUED-185" value="" style="edgeStyle=orthogonalEdgeStyle;rounded=0;orthogonalLoop=1;jettySize=auto;html=1;" edge="1" parent="1" source="5NVZFzIgTWXD4TzpRUED-71" target="5NVZFzIgTWXD4TzpRUED-72">
          <mxGeometry relative="1" as="geometry" />
        </mxCell>
        <mxCell id="5NVZFzIgTWXD4TzpRUED-71" value="&lt;span style=&quot;font-family: &amp;quot;Times New Roman&amp;quot;; font-size: medium; text-align: start;&quot;&gt;thirteen&lt;/span&gt;" style="rounded=0;whiteSpace=wrap;html=1;shape=parallelogram;perimeter=parallelogramPerimeter;fixedSize=1;" vertex="1" parent="1">
          <mxGeometry x="-570.0000000000001" y="1275" width="130" height="40" as="geometry" />
        </mxCell>
        <mxCell id="5NVZFzIgTWXD4TzpRUED-189" value="" style="edgeStyle=orthogonalEdgeStyle;rounded=0;orthogonalLoop=1;jettySize=auto;html=1;" edge="1" parent="1" source="5NVZFzIgTWXD4TzpRUED-72" target="5NVZFzIgTWXD4TzpRUED-74">
          <mxGeometry relative="1" as="geometry" />
        </mxCell>
        <mxCell id="5NVZFzIgTWXD4TzpRUED-72" value="" style="ellipse;whiteSpace=wrap;html=1;aspect=fixed;" vertex="1" parent="1">
          <mxGeometry x="-370" y="1285" width="20" height="20" as="geometry" />
        </mxCell>
        <mxCell id="5NVZFzIgTWXD4TzpRUED-188" value="" style="edgeStyle=orthogonalEdgeStyle;rounded=0;orthogonalLoop=1;jettySize=auto;html=1;" edge="1" parent="1" source="5NVZFzIgTWXD4TzpRUED-73" target="5NVZFzIgTWXD4TzpRUED-74">
          <mxGeometry relative="1" as="geometry" />
        </mxCell>
        <mxCell id="5NVZFzIgTWXD4TzpRUED-73" value="&lt;span style=&quot;font-family: &amp;quot;Times New Roman&amp;quot;; font-size: medium; text-align: start;&quot;&gt;fourteen&lt;/span&gt;" style="rounded=0;whiteSpace=wrap;html=1;shape=parallelogram;perimeter=parallelogramPerimeter;fixedSize=1;" vertex="1" parent="1">
          <mxGeometry x="-570.0000000000001" y="1355" width="130" height="40" as="geometry" />
        </mxCell>
        <mxCell id="5NVZFzIgTWXD4TzpRUED-192" value="" style="edgeStyle=orthogonalEdgeStyle;rounded=0;orthogonalLoop=1;jettySize=auto;html=1;" edge="1" parent="1" source="5NVZFzIgTWXD4TzpRUED-74" target="5NVZFzIgTWXD4TzpRUED-76">
          <mxGeometry relative="1" as="geometry" />
        </mxCell>
        <mxCell id="5NVZFzIgTWXD4TzpRUED-74" value="" style="ellipse;whiteSpace=wrap;html=1;aspect=fixed;" vertex="1" parent="1">
          <mxGeometry x="-370" y="1365" width="20" height="20" as="geometry" />
        </mxCell>
        <mxCell id="5NVZFzIgTWXD4TzpRUED-191" value="" style="edgeStyle=orthogonalEdgeStyle;rounded=0;orthogonalLoop=1;jettySize=auto;html=1;" edge="1" parent="1" source="5NVZFzIgTWXD4TzpRUED-75" target="5NVZFzIgTWXD4TzpRUED-76">
          <mxGeometry relative="1" as="geometry" />
        </mxCell>
        <mxCell id="5NVZFzIgTWXD4TzpRUED-75" value="&lt;span style=&quot;font-family: &amp;quot;Times New Roman&amp;quot;; font-size: medium; text-align: start;&quot;&gt;fifteen&lt;/span&gt;" style="rounded=0;whiteSpace=wrap;html=1;shape=parallelogram;perimeter=parallelogramPerimeter;fixedSize=1;" vertex="1" parent="1">
          <mxGeometry x="-570.0000000000001" y="1435" width="130" height="40" as="geometry" />
        </mxCell>
        <mxCell id="5NVZFzIgTWXD4TzpRUED-195" value="" style="edgeStyle=orthogonalEdgeStyle;rounded=0;orthogonalLoop=1;jettySize=auto;html=1;" edge="1" parent="1" source="5NVZFzIgTWXD4TzpRUED-76" target="5NVZFzIgTWXD4TzpRUED-78">
          <mxGeometry relative="1" as="geometry" />
        </mxCell>
        <mxCell id="5NVZFzIgTWXD4TzpRUED-76" value="" style="ellipse;whiteSpace=wrap;html=1;aspect=fixed;" vertex="1" parent="1">
          <mxGeometry x="-370" y="1445" width="20" height="20" as="geometry" />
        </mxCell>
        <mxCell id="5NVZFzIgTWXD4TzpRUED-194" value="" style="edgeStyle=orthogonalEdgeStyle;rounded=0;orthogonalLoop=1;jettySize=auto;html=1;" edge="1" parent="1" source="5NVZFzIgTWXD4TzpRUED-77" target="5NVZFzIgTWXD4TzpRUED-78">
          <mxGeometry relative="1" as="geometry" />
        </mxCell>
        <mxCell id="5NVZFzIgTWXD4TzpRUED-77" value="&lt;span style=&quot;font-family: &amp;quot;Times New Roman&amp;quot;; font-size: medium; text-align: start;&quot;&gt;sixteen&lt;/span&gt;" style="rounded=0;whiteSpace=wrap;html=1;shape=parallelogram;perimeter=parallelogramPerimeter;fixedSize=1;" vertex="1" parent="1">
          <mxGeometry x="-570.0000000000001" y="1515" width="130" height="40" as="geometry" />
        </mxCell>
        <mxCell id="5NVZFzIgTWXD4TzpRUED-198" value="" style="edgeStyle=orthogonalEdgeStyle;rounded=0;orthogonalLoop=1;jettySize=auto;html=1;" edge="1" parent="1" source="5NVZFzIgTWXD4TzpRUED-78" target="5NVZFzIgTWXD4TzpRUED-81">
          <mxGeometry relative="1" as="geometry" />
        </mxCell>
        <mxCell id="5NVZFzIgTWXD4TzpRUED-78" value="" style="ellipse;whiteSpace=wrap;html=1;aspect=fixed;" vertex="1" parent="1">
          <mxGeometry x="-370" y="1525" width="20" height="20" as="geometry" />
        </mxCell>
        <mxCell id="5NVZFzIgTWXD4TzpRUED-93" value="" style="edgeStyle=orthogonalEdgeStyle;rounded=0;orthogonalLoop=1;jettySize=auto;html=1;" edge="1" parent="1" source="5NVZFzIgTWXD4TzpRUED-79" target="5NVZFzIgTWXD4TzpRUED-82">
          <mxGeometry relative="1" as="geometry" />
        </mxCell>
        <mxCell id="5NVZFzIgTWXD4TzpRUED-193" value="" style="edgeStyle=orthogonalEdgeStyle;rounded=0;orthogonalLoop=1;jettySize=auto;html=1;" edge="1" parent="1" source="5NVZFzIgTWXD4TzpRUED-79" target="5NVZFzIgTWXD4TzpRUED-77">
          <mxGeometry relative="1" as="geometry" />
        </mxCell>
        <mxCell id="5NVZFzIgTWXD4TzpRUED-79" value="16" style="rhombus;whiteSpace=wrap;html=1;" vertex="1" parent="1">
          <mxGeometry x="-731.25" y="1510" width="112.5" height="50" as="geometry" />
        </mxCell>
        <mxCell id="5NVZFzIgTWXD4TzpRUED-197" value="" style="edgeStyle=orthogonalEdgeStyle;rounded=0;orthogonalLoop=1;jettySize=auto;html=1;" edge="1" parent="1" source="5NVZFzIgTWXD4TzpRUED-80" target="5NVZFzIgTWXD4TzpRUED-81">
          <mxGeometry relative="1" as="geometry" />
        </mxCell>
        <mxCell id="5NVZFzIgTWXD4TzpRUED-80" value="&lt;span style=&quot;font-family: &amp;quot;Times New Roman&amp;quot;; font-size: medium; text-align: start;&quot;&gt;seventeen&lt;/span&gt;" style="rounded=0;whiteSpace=wrap;html=1;shape=parallelogram;perimeter=parallelogramPerimeter;fixedSize=1;" vertex="1" parent="1">
          <mxGeometry x="-570.0000000000001" y="1605" width="130" height="40" as="geometry" />
        </mxCell>
        <mxCell id="5NVZFzIgTWXD4TzpRUED-201" value="" style="edgeStyle=orthogonalEdgeStyle;rounded=0;orthogonalLoop=1;jettySize=auto;html=1;" edge="1" parent="1" source="5NVZFzIgTWXD4TzpRUED-81" target="5NVZFzIgTWXD4TzpRUED-84">
          <mxGeometry relative="1" as="geometry" />
        </mxCell>
        <mxCell id="5NVZFzIgTWXD4TzpRUED-81" value="" style="ellipse;whiteSpace=wrap;html=1;aspect=fixed;" vertex="1" parent="1">
          <mxGeometry x="-370" y="1615" width="20" height="20" as="geometry" />
        </mxCell>
        <mxCell id="5NVZFzIgTWXD4TzpRUED-95" value="" style="edgeStyle=orthogonalEdgeStyle;rounded=0;orthogonalLoop=1;jettySize=auto;html=1;" edge="1" parent="1" source="5NVZFzIgTWXD4TzpRUED-82" target="5NVZFzIgTWXD4TzpRUED-85">
          <mxGeometry relative="1" as="geometry" />
        </mxCell>
        <mxCell id="5NVZFzIgTWXD4TzpRUED-196" value="" style="edgeStyle=orthogonalEdgeStyle;rounded=0;orthogonalLoop=1;jettySize=auto;html=1;" edge="1" parent="1" source="5NVZFzIgTWXD4TzpRUED-82" target="5NVZFzIgTWXD4TzpRUED-80">
          <mxGeometry relative="1" as="geometry" />
        </mxCell>
        <mxCell id="5NVZFzIgTWXD4TzpRUED-82" value="17" style="rhombus;whiteSpace=wrap;html=1;" vertex="1" parent="1">
          <mxGeometry x="-731.25" y="1600" width="112.5" height="50" as="geometry" />
        </mxCell>
        <mxCell id="5NVZFzIgTWXD4TzpRUED-200" value="" style="edgeStyle=orthogonalEdgeStyle;rounded=0;orthogonalLoop=1;jettySize=auto;html=1;" edge="1" parent="1" source="5NVZFzIgTWXD4TzpRUED-83" target="5NVZFzIgTWXD4TzpRUED-84">
          <mxGeometry relative="1" as="geometry" />
        </mxCell>
        <mxCell id="5NVZFzIgTWXD4TzpRUED-83" value="&lt;span style=&quot;font-family: &amp;quot;Times New Roman&amp;quot;; font-size: medium; text-align: start;&quot;&gt;eighteen&lt;/span&gt;" style="rounded=0;whiteSpace=wrap;html=1;shape=parallelogram;perimeter=parallelogramPerimeter;fixedSize=1;" vertex="1" parent="1">
          <mxGeometry x="-570.0000000000001" y="1685" width="130" height="40" as="geometry" />
        </mxCell>
        <mxCell id="5NVZFzIgTWXD4TzpRUED-204" value="" style="edgeStyle=orthogonalEdgeStyle;rounded=0;orthogonalLoop=1;jettySize=auto;html=1;" edge="1" parent="1" source="5NVZFzIgTWXD4TzpRUED-84" target="5NVZFzIgTWXD4TzpRUED-87">
          <mxGeometry relative="1" as="geometry" />
        </mxCell>
        <mxCell id="5NVZFzIgTWXD4TzpRUED-84" value="" style="ellipse;whiteSpace=wrap;html=1;aspect=fixed;" vertex="1" parent="1">
          <mxGeometry x="-370" y="1695" width="20" height="20" as="geometry" />
        </mxCell>
        <mxCell id="5NVZFzIgTWXD4TzpRUED-96" value="" style="edgeStyle=orthogonalEdgeStyle;rounded=0;orthogonalLoop=1;jettySize=auto;html=1;" edge="1" parent="1" source="5NVZFzIgTWXD4TzpRUED-85" target="5NVZFzIgTWXD4TzpRUED-88">
          <mxGeometry relative="1" as="geometry" />
        </mxCell>
        <mxCell id="5NVZFzIgTWXD4TzpRUED-199" value="" style="edgeStyle=orthogonalEdgeStyle;rounded=0;orthogonalLoop=1;jettySize=auto;html=1;" edge="1" parent="1" source="5NVZFzIgTWXD4TzpRUED-85" target="5NVZFzIgTWXD4TzpRUED-83">
          <mxGeometry relative="1" as="geometry" />
        </mxCell>
        <mxCell id="5NVZFzIgTWXD4TzpRUED-85" value="18" style="rhombus;whiteSpace=wrap;html=1;" vertex="1" parent="1">
          <mxGeometry x="-731.25" y="1680" width="112.5" height="50" as="geometry" />
        </mxCell>
        <mxCell id="5NVZFzIgTWXD4TzpRUED-203" value="" style="edgeStyle=orthogonalEdgeStyle;rounded=0;orthogonalLoop=1;jettySize=auto;html=1;" edge="1" parent="1" source="5NVZFzIgTWXD4TzpRUED-86" target="5NVZFzIgTWXD4TzpRUED-87">
          <mxGeometry relative="1" as="geometry" />
        </mxCell>
        <mxCell id="5NVZFzIgTWXD4TzpRUED-86" value="&lt;span style=&quot;font-family: &amp;quot;Times New Roman&amp;quot;; font-size: medium; text-align: start;&quot;&gt;nineteen&lt;/span&gt;" style="rounded=0;whiteSpace=wrap;html=1;shape=parallelogram;perimeter=parallelogramPerimeter;fixedSize=1;" vertex="1" parent="1">
          <mxGeometry x="-570.0000000000001" y="1775" width="130" height="40" as="geometry" />
        </mxCell>
        <mxCell id="5NVZFzIgTWXD4TzpRUED-208" style="edgeStyle=orthogonalEdgeStyle;rounded=0;orthogonalLoop=1;jettySize=auto;html=1;entryX=0.5;entryY=0;entryDx=0;entryDy=0;" edge="1" parent="1" source="5NVZFzIgTWXD4TzpRUED-87" target="5NVZFzIgTWXD4TzpRUED-90">
          <mxGeometry relative="1" as="geometry" />
        </mxCell>
        <mxCell id="5NVZFzIgTWXD4TzpRUED-87" value="" style="ellipse;whiteSpace=wrap;html=1;aspect=fixed;" vertex="1" parent="1">
          <mxGeometry x="-370" y="1785" width="20" height="20" as="geometry" />
        </mxCell>
        <mxCell id="5NVZFzIgTWXD4TzpRUED-97" value="" style="edgeStyle=orthogonalEdgeStyle;rounded=0;orthogonalLoop=1;jettySize=auto;html=1;" edge="1" parent="1" source="5NVZFzIgTWXD4TzpRUED-88" target="5NVZFzIgTWXD4TzpRUED-91">
          <mxGeometry relative="1" as="geometry" />
        </mxCell>
        <mxCell id="5NVZFzIgTWXD4TzpRUED-202" value="" style="edgeStyle=orthogonalEdgeStyle;rounded=0;orthogonalLoop=1;jettySize=auto;html=1;" edge="1" parent="1" source="5NVZFzIgTWXD4TzpRUED-88" target="5NVZFzIgTWXD4TzpRUED-86">
          <mxGeometry relative="1" as="geometry" />
        </mxCell>
        <mxCell id="5NVZFzIgTWXD4TzpRUED-88" value="19" style="rhombus;whiteSpace=wrap;html=1;" vertex="1" parent="1">
          <mxGeometry x="-731.25" y="1770" width="112.5" height="50" as="geometry" />
        </mxCell>
        <mxCell id="5NVZFzIgTWXD4TzpRUED-206" value="" style="edgeStyle=orthogonalEdgeStyle;rounded=0;orthogonalLoop=1;jettySize=auto;html=1;" edge="1" parent="1" source="5NVZFzIgTWXD4TzpRUED-89" target="5NVZFzIgTWXD4TzpRUED-90">
          <mxGeometry relative="1" as="geometry" />
        </mxCell>
        <mxCell id="5NVZFzIgTWXD4TzpRUED-89" value="&lt;span style=&quot;font-family: &amp;quot;Times New Roman&amp;quot;; font-size: medium; text-align: start;&quot;&gt;twenty&lt;/span&gt;" style="rounded=0;whiteSpace=wrap;html=1;shape=parallelogram;perimeter=parallelogramPerimeter;fixedSize=1;" vertex="1" parent="1">
          <mxGeometry x="-570.0000000000001" y="1845" width="130" height="40" as="geometry" />
        </mxCell>
        <mxCell id="5NVZFzIgTWXD4TzpRUED-211" value="" style="edgeStyle=orthogonalEdgeStyle;rounded=0;orthogonalLoop=1;jettySize=auto;html=1;" edge="1" parent="1" source="5NVZFzIgTWXD4TzpRUED-90" target="5NVZFzIgTWXD4TzpRUED-99">
          <mxGeometry relative="1" as="geometry" />
        </mxCell>
        <mxCell id="5NVZFzIgTWXD4TzpRUED-90" value="" style="ellipse;whiteSpace=wrap;html=1;aspect=fixed;" vertex="1" parent="1">
          <mxGeometry x="-370" y="1855" width="20" height="20" as="geometry" />
        </mxCell>
        <mxCell id="5NVZFzIgTWXD4TzpRUED-125" value="" style="edgeStyle=orthogonalEdgeStyle;rounded=0;orthogonalLoop=1;jettySize=auto;html=1;" edge="1" parent="1" source="5NVZFzIgTWXD4TzpRUED-91" target="5NVZFzIgTWXD4TzpRUED-100">
          <mxGeometry relative="1" as="geometry" />
        </mxCell>
        <mxCell id="5NVZFzIgTWXD4TzpRUED-205" value="" style="edgeStyle=orthogonalEdgeStyle;rounded=0;orthogonalLoop=1;jettySize=auto;html=1;" edge="1" parent="1" source="5NVZFzIgTWXD4TzpRUED-91" target="5NVZFzIgTWXD4TzpRUED-89">
          <mxGeometry relative="1" as="geometry" />
        </mxCell>
        <mxCell id="5NVZFzIgTWXD4TzpRUED-91" value="20" style="rhombus;whiteSpace=wrap;html=1;" vertex="1" parent="1">
          <mxGeometry x="-731.25" y="1840" width="112.5" height="50" as="geometry" />
        </mxCell>
        <mxCell id="5NVZFzIgTWXD4TzpRUED-210" value="" style="edgeStyle=orthogonalEdgeStyle;rounded=0;orthogonalLoop=1;jettySize=auto;html=1;" edge="1" parent="1" source="5NVZFzIgTWXD4TzpRUED-98" target="5NVZFzIgTWXD4TzpRUED-99">
          <mxGeometry relative="1" as="geometry" />
        </mxCell>
        <mxCell id="5NVZFzIgTWXD4TzpRUED-98" value="&lt;table style=&quot;font-family: &amp;quot;Times New Roman&amp;quot;; font-size: medium; text-align: start;&quot;&gt;&lt;tbody&gt;&lt;tr&gt;&lt;td&gt;twenty-one&lt;br&gt;&lt;/td&gt;&lt;/tr&gt;&lt;/tbody&gt;&lt;/table&gt;" style="rounded=0;whiteSpace=wrap;html=1;shape=parallelogram;perimeter=parallelogramPerimeter;fixedSize=1;" vertex="1" parent="1">
          <mxGeometry x="-570.0000000000001" y="1915" width="130" height="40" as="geometry" />
        </mxCell>
        <mxCell id="5NVZFzIgTWXD4TzpRUED-213" value="" style="edgeStyle=orthogonalEdgeStyle;rounded=0;orthogonalLoop=1;jettySize=auto;html=1;" edge="1" parent="1" source="5NVZFzIgTWXD4TzpRUED-99" target="5NVZFzIgTWXD4TzpRUED-102">
          <mxGeometry relative="1" as="geometry" />
        </mxCell>
        <mxCell id="5NVZFzIgTWXD4TzpRUED-99" value="" style="ellipse;whiteSpace=wrap;html=1;aspect=fixed;" vertex="1" parent="1">
          <mxGeometry x="-370" y="1925" width="20" height="20" as="geometry" />
        </mxCell>
        <mxCell id="5NVZFzIgTWXD4TzpRUED-126" value="" style="edgeStyle=orthogonalEdgeStyle;rounded=0;orthogonalLoop=1;jettySize=auto;html=1;" edge="1" parent="1" target="5NVZFzIgTWXD4TzpRUED-103">
          <mxGeometry relative="1" as="geometry">
            <mxPoint x="-674.9999999999998" y="1945" as="sourcePoint" />
          </mxGeometry>
        </mxCell>
        <mxCell id="5NVZFzIgTWXD4TzpRUED-209" value="" style="edgeStyle=orthogonalEdgeStyle;rounded=0;orthogonalLoop=1;jettySize=auto;html=1;" edge="1" parent="1" source="5NVZFzIgTWXD4TzpRUED-100" target="5NVZFzIgTWXD4TzpRUED-98">
          <mxGeometry relative="1" as="geometry" />
        </mxCell>
        <mxCell id="5NVZFzIgTWXD4TzpRUED-100" value="21" style="rhombus;whiteSpace=wrap;html=1;" vertex="1" parent="1">
          <mxGeometry x="-731.25" y="1910" width="112.5" height="50" as="geometry" />
        </mxCell>
        <mxCell id="5NVZFzIgTWXD4TzpRUED-214" value="" style="edgeStyle=orthogonalEdgeStyle;rounded=0;orthogonalLoop=1;jettySize=auto;html=1;" edge="1" parent="1" source="5NVZFzIgTWXD4TzpRUED-101" target="5NVZFzIgTWXD4TzpRUED-102">
          <mxGeometry relative="1" as="geometry" />
        </mxCell>
        <mxCell id="5NVZFzIgTWXD4TzpRUED-101" value="&lt;span style=&quot;font-family: &amp;quot;Times New Roman&amp;quot;; font-size: medium; text-align: start;&quot;&gt;twenty-two&lt;/span&gt;" style="rounded=0;whiteSpace=wrap;html=1;shape=parallelogram;perimeter=parallelogramPerimeter;fixedSize=1;" vertex="1" parent="1">
          <mxGeometry x="-570.0000000000001" y="2000" width="130" height="40" as="geometry" />
        </mxCell>
        <mxCell id="5NVZFzIgTWXD4TzpRUED-217" value="" style="edgeStyle=orthogonalEdgeStyle;rounded=0;orthogonalLoop=1;jettySize=auto;html=1;" edge="1" parent="1" source="5NVZFzIgTWXD4TzpRUED-102" target="5NVZFzIgTWXD4TzpRUED-105">
          <mxGeometry relative="1" as="geometry" />
        </mxCell>
        <mxCell id="5NVZFzIgTWXD4TzpRUED-102" value="" style="ellipse;whiteSpace=wrap;html=1;aspect=fixed;" vertex="1" parent="1">
          <mxGeometry x="-370" y="2010" width="20" height="20" as="geometry" />
        </mxCell>
        <mxCell id="5NVZFzIgTWXD4TzpRUED-128" style="edgeStyle=orthogonalEdgeStyle;rounded=0;orthogonalLoop=1;jettySize=auto;html=1;entryX=0.5;entryY=0;entryDx=0;entryDy=0;" edge="1" parent="1" source="5NVZFzIgTWXD4TzpRUED-103" target="5NVZFzIgTWXD4TzpRUED-106">
          <mxGeometry relative="1" as="geometry" />
        </mxCell>
        <mxCell id="5NVZFzIgTWXD4TzpRUED-212" value="" style="edgeStyle=orthogonalEdgeStyle;rounded=0;orthogonalLoop=1;jettySize=auto;html=1;" edge="1" parent="1" source="5NVZFzIgTWXD4TzpRUED-103" target="5NVZFzIgTWXD4TzpRUED-101">
          <mxGeometry relative="1" as="geometry" />
        </mxCell>
        <mxCell id="5NVZFzIgTWXD4TzpRUED-103" value="22" style="rhombus;whiteSpace=wrap;html=1;" vertex="1" parent="1">
          <mxGeometry x="-731.25" y="1995" width="112.5" height="50" as="geometry" />
        </mxCell>
        <mxCell id="5NVZFzIgTWXD4TzpRUED-216" value="" style="edgeStyle=orthogonalEdgeStyle;rounded=0;orthogonalLoop=1;jettySize=auto;html=1;" edge="1" parent="1" source="5NVZFzIgTWXD4TzpRUED-104" target="5NVZFzIgTWXD4TzpRUED-105">
          <mxGeometry relative="1" as="geometry" />
        </mxCell>
        <mxCell id="5NVZFzIgTWXD4TzpRUED-104" value="&lt;div&gt;&lt;table style=&quot;font-family: &amp;quot;Times New Roman&amp;quot;; font-size: medium; text-align: start;&quot;&gt;&lt;tbody&gt;&lt;tr&gt;&lt;td&gt;twenty-three&lt;/td&gt;&lt;/tr&gt;&lt;/tbody&gt;&lt;/table&gt;&lt;/div&gt;" style="rounded=0;whiteSpace=wrap;html=1;shape=parallelogram;perimeter=parallelogramPerimeter;fixedSize=1;" vertex="1" parent="1">
          <mxGeometry x="-570.0000000000001" y="2080" width="130" height="40" as="geometry" />
        </mxCell>
        <mxCell id="5NVZFzIgTWXD4TzpRUED-220" value="" style="edgeStyle=orthogonalEdgeStyle;rounded=0;orthogonalLoop=1;jettySize=auto;html=1;" edge="1" parent="1" source="5NVZFzIgTWXD4TzpRUED-105" target="5NVZFzIgTWXD4TzpRUED-108">
          <mxGeometry relative="1" as="geometry" />
        </mxCell>
        <mxCell id="5NVZFzIgTWXD4TzpRUED-105" value="" style="ellipse;whiteSpace=wrap;html=1;aspect=fixed;" vertex="1" parent="1">
          <mxGeometry x="-370" y="2090" width="20" height="20" as="geometry" />
        </mxCell>
        <mxCell id="5NVZFzIgTWXD4TzpRUED-130" style="edgeStyle=orthogonalEdgeStyle;rounded=0;orthogonalLoop=1;jettySize=auto;html=1;entryX=0.5;entryY=0;entryDx=0;entryDy=0;" edge="1" parent="1" source="5NVZFzIgTWXD4TzpRUED-106" target="5NVZFzIgTWXD4TzpRUED-109">
          <mxGeometry relative="1" as="geometry" />
        </mxCell>
        <mxCell id="5NVZFzIgTWXD4TzpRUED-215" value="" style="edgeStyle=orthogonalEdgeStyle;rounded=0;orthogonalLoop=1;jettySize=auto;html=1;" edge="1" parent="1" source="5NVZFzIgTWXD4TzpRUED-106" target="5NVZFzIgTWXD4TzpRUED-104">
          <mxGeometry relative="1" as="geometry" />
        </mxCell>
        <mxCell id="5NVZFzIgTWXD4TzpRUED-106" value="23" style="rhombus;whiteSpace=wrap;html=1;" vertex="1" parent="1">
          <mxGeometry x="-731.25" y="2075" width="112.5" height="50" as="geometry" />
        </mxCell>
        <mxCell id="5NVZFzIgTWXD4TzpRUED-219" value="" style="edgeStyle=orthogonalEdgeStyle;rounded=0;orthogonalLoop=1;jettySize=auto;html=1;" edge="1" parent="1" source="5NVZFzIgTWXD4TzpRUED-107" target="5NVZFzIgTWXD4TzpRUED-108">
          <mxGeometry relative="1" as="geometry" />
        </mxCell>
        <mxCell id="5NVZFzIgTWXD4TzpRUED-107" value="&lt;table style=&quot;font-family: &amp;quot;Times New Roman&amp;quot;; font-size: medium; text-align: start;&quot;&gt;&lt;tbody&gt;&lt;tr&gt;&lt;td&gt;twenty-four&lt;br&gt;&lt;/td&gt;&lt;/tr&gt;&lt;/tbody&gt;&lt;/table&gt;" style="rounded=0;whiteSpace=wrap;html=1;shape=parallelogram;perimeter=parallelogramPerimeter;fixedSize=1;" vertex="1" parent="1">
          <mxGeometry x="-570.0000000000001" y="2160" width="130" height="40" as="geometry" />
        </mxCell>
        <mxCell id="5NVZFzIgTWXD4TzpRUED-223" value="" style="edgeStyle=orthogonalEdgeStyle;rounded=0;orthogonalLoop=1;jettySize=auto;html=1;" edge="1" parent="1" source="5NVZFzIgTWXD4TzpRUED-108" target="5NVZFzIgTWXD4TzpRUED-111">
          <mxGeometry relative="1" as="geometry" />
        </mxCell>
        <mxCell id="5NVZFzIgTWXD4TzpRUED-108" value="" style="ellipse;whiteSpace=wrap;html=1;aspect=fixed;" vertex="1" parent="1">
          <mxGeometry x="-370" y="2170" width="20" height="20" as="geometry" />
        </mxCell>
        <mxCell id="5NVZFzIgTWXD4TzpRUED-132" style="edgeStyle=orthogonalEdgeStyle;rounded=0;orthogonalLoop=1;jettySize=auto;html=1;entryX=0.5;entryY=0;entryDx=0;entryDy=0;" edge="1" parent="1" source="5NVZFzIgTWXD4TzpRUED-109" target="5NVZFzIgTWXD4TzpRUED-112">
          <mxGeometry relative="1" as="geometry" />
        </mxCell>
        <mxCell id="5NVZFzIgTWXD4TzpRUED-218" value="" style="edgeStyle=orthogonalEdgeStyle;rounded=0;orthogonalLoop=1;jettySize=auto;html=1;" edge="1" parent="1" source="5NVZFzIgTWXD4TzpRUED-109" target="5NVZFzIgTWXD4TzpRUED-107">
          <mxGeometry relative="1" as="geometry" />
        </mxCell>
        <mxCell id="5NVZFzIgTWXD4TzpRUED-109" value="24" style="rhombus;whiteSpace=wrap;html=1;" vertex="1" parent="1">
          <mxGeometry x="-731.25" y="2155" width="112.5" height="50" as="geometry" />
        </mxCell>
        <mxCell id="5NVZFzIgTWXD4TzpRUED-222" value="" style="edgeStyle=orthogonalEdgeStyle;rounded=0;orthogonalLoop=1;jettySize=auto;html=1;" edge="1" parent="1" source="5NVZFzIgTWXD4TzpRUED-110" target="5NVZFzIgTWXD4TzpRUED-111">
          <mxGeometry relative="1" as="geometry" />
        </mxCell>
        <mxCell id="5NVZFzIgTWXD4TzpRUED-110" value="twenty-five" style="rounded=0;whiteSpace=wrap;html=1;shape=parallelogram;perimeter=parallelogramPerimeter;fixedSize=1;" vertex="1" parent="1">
          <mxGeometry x="-570.0000000000001" y="2240" width="130" height="40" as="geometry" />
        </mxCell>
        <mxCell id="5NVZFzIgTWXD4TzpRUED-225" value="" style="edgeStyle=orthogonalEdgeStyle;rounded=0;orthogonalLoop=1;jettySize=auto;html=1;" edge="1" parent="1" source="5NVZFzIgTWXD4TzpRUED-111" target="5NVZFzIgTWXD4TzpRUED-114">
          <mxGeometry relative="1" as="geometry" />
        </mxCell>
        <mxCell id="5NVZFzIgTWXD4TzpRUED-111" value="" style="ellipse;whiteSpace=wrap;html=1;aspect=fixed;" vertex="1" parent="1">
          <mxGeometry x="-370" y="2250" width="20" height="20" as="geometry" />
        </mxCell>
        <mxCell id="5NVZFzIgTWXD4TzpRUED-133" style="edgeStyle=orthogonalEdgeStyle;rounded=0;orthogonalLoop=1;jettySize=auto;html=1;entryX=0.5;entryY=0;entryDx=0;entryDy=0;" edge="1" parent="1" source="5NVZFzIgTWXD4TzpRUED-112" target="5NVZFzIgTWXD4TzpRUED-115">
          <mxGeometry relative="1" as="geometry" />
        </mxCell>
        <mxCell id="5NVZFzIgTWXD4TzpRUED-221" value="" style="edgeStyle=orthogonalEdgeStyle;rounded=0;orthogonalLoop=1;jettySize=auto;html=1;" edge="1" parent="1" source="5NVZFzIgTWXD4TzpRUED-112" target="5NVZFzIgTWXD4TzpRUED-110">
          <mxGeometry relative="1" as="geometry" />
        </mxCell>
        <mxCell id="5NVZFzIgTWXD4TzpRUED-112" value="25" style="rhombus;whiteSpace=wrap;html=1;" vertex="1" parent="1">
          <mxGeometry x="-731.25" y="2235" width="112.5" height="50" as="geometry" />
        </mxCell>
        <mxCell id="5NVZFzIgTWXD4TzpRUED-226" value="" style="edgeStyle=orthogonalEdgeStyle;rounded=0;orthogonalLoop=1;jettySize=auto;html=1;" edge="1" parent="1" source="5NVZFzIgTWXD4TzpRUED-113" target="5NVZFzIgTWXD4TzpRUED-114">
          <mxGeometry relative="1" as="geometry" />
        </mxCell>
        <mxCell id="5NVZFzIgTWXD4TzpRUED-113" value="&#xa;&lt;table style=&quot;color: rgb(0, 0, 0); font-family: &amp;quot;Times New Roman&amp;quot;; font-size: medium; font-style: normal; font-variant-ligatures: normal; font-variant-caps: normal; font-weight: 400; letter-spacing: normal; orphans: 2; text-align: start; text-transform: none; widows: 2; word-spacing: 0px; -webkit-text-stroke-width: 0px; white-space: normal; text-decoration-thickness: initial; text-decoration-style: initial; text-decoration-color: initial;&quot;&gt;&lt;tbody&gt;&lt;tr&gt;&lt;td&gt;&lt;br class=&quot;Apple-interchange-newline&quot;&gt;twenty-six&lt;/td&gt;&lt;/tr&gt;&lt;/tbody&gt;&lt;/table&gt;&#xa;&#xa;" style="rounded=0;whiteSpace=wrap;html=1;shape=parallelogram;perimeter=parallelogramPerimeter;fixedSize=1;" vertex="1" parent="1">
          <mxGeometry x="-570.0000000000001" y="2320" width="130" height="40" as="geometry" />
        </mxCell>
        <mxCell id="5NVZFzIgTWXD4TzpRUED-229" value="" style="edgeStyle=orthogonalEdgeStyle;rounded=0;orthogonalLoop=1;jettySize=auto;html=1;" edge="1" parent="1" source="5NVZFzIgTWXD4TzpRUED-114" target="5NVZFzIgTWXD4TzpRUED-117">
          <mxGeometry relative="1" as="geometry" />
        </mxCell>
        <mxCell id="5NVZFzIgTWXD4TzpRUED-114" value="" style="ellipse;whiteSpace=wrap;html=1;aspect=fixed;" vertex="1" parent="1">
          <mxGeometry x="-370" y="2330" width="20" height="20" as="geometry" />
        </mxCell>
        <mxCell id="5NVZFzIgTWXD4TzpRUED-134" value="" style="edgeStyle=orthogonalEdgeStyle;rounded=0;orthogonalLoop=1;jettySize=auto;html=1;" edge="1" parent="1" source="5NVZFzIgTWXD4TzpRUED-115" target="5NVZFzIgTWXD4TzpRUED-118">
          <mxGeometry relative="1" as="geometry" />
        </mxCell>
        <mxCell id="5NVZFzIgTWXD4TzpRUED-224" value="" style="edgeStyle=orthogonalEdgeStyle;rounded=0;orthogonalLoop=1;jettySize=auto;html=1;" edge="1" parent="1" source="5NVZFzIgTWXD4TzpRUED-115" target="5NVZFzIgTWXD4TzpRUED-113">
          <mxGeometry relative="1" as="geometry" />
        </mxCell>
        <mxCell id="5NVZFzIgTWXD4TzpRUED-115" value="26" style="rhombus;whiteSpace=wrap;html=1;" vertex="1" parent="1">
          <mxGeometry x="-731.25" y="2315" width="112.5" height="50" as="geometry" />
        </mxCell>
        <mxCell id="5NVZFzIgTWXD4TzpRUED-228" value="" style="edgeStyle=orthogonalEdgeStyle;rounded=0;orthogonalLoop=1;jettySize=auto;html=1;" edge="1" parent="1" source="5NVZFzIgTWXD4TzpRUED-116" target="5NVZFzIgTWXD4TzpRUED-117">
          <mxGeometry relative="1" as="geometry" />
        </mxCell>
        <mxCell id="5NVZFzIgTWXD4TzpRUED-116" value="&#xa;&lt;table style=&quot;color: rgb(0, 0, 0); font-family: &amp;quot;Times New Roman&amp;quot;; font-size: medium; font-style: normal; font-variant-ligatures: normal; font-variant-caps: normal; font-weight: 400; letter-spacing: normal; orphans: 2; text-align: start; text-transform: none; widows: 2; word-spacing: 0px; -webkit-text-stroke-width: 0px; white-space: normal; text-decoration-thickness: initial; text-decoration-style: initial; text-decoration-color: initial;&quot;&gt;&lt;tbody&gt;&lt;tr&gt;&lt;td&gt;&lt;br class=&quot;Apple-interchange-newline&quot;&gt;twenty-seven&lt;/td&gt;&lt;/tr&gt;&lt;/tbody&gt;&lt;/table&gt;&lt;br class=&quot;Apple-interchange-newline&quot;&gt;&#xa;&#xa;" style="rounded=0;whiteSpace=wrap;html=1;shape=parallelogram;perimeter=parallelogramPerimeter;fixedSize=1;" vertex="1" parent="1">
          <mxGeometry x="-570.0000000000001" y="2400" width="130" height="40" as="geometry" />
        </mxCell>
        <mxCell id="5NVZFzIgTWXD4TzpRUED-232" value="" style="edgeStyle=orthogonalEdgeStyle;rounded=0;orthogonalLoop=1;jettySize=auto;html=1;" edge="1" parent="1" source="5NVZFzIgTWXD4TzpRUED-117" target="5NVZFzIgTWXD4TzpRUED-120">
          <mxGeometry relative="1" as="geometry" />
        </mxCell>
        <mxCell id="5NVZFzIgTWXD4TzpRUED-117" value="" style="ellipse;whiteSpace=wrap;html=1;aspect=fixed;" vertex="1" parent="1">
          <mxGeometry x="-370" y="2410" width="20" height="20" as="geometry" />
        </mxCell>
        <mxCell id="5NVZFzIgTWXD4TzpRUED-135" value="" style="edgeStyle=orthogonalEdgeStyle;rounded=0;orthogonalLoop=1;jettySize=auto;html=1;" edge="1" parent="1" source="5NVZFzIgTWXD4TzpRUED-118" target="5NVZFzIgTWXD4TzpRUED-121">
          <mxGeometry relative="1" as="geometry" />
        </mxCell>
        <mxCell id="5NVZFzIgTWXD4TzpRUED-227" value="" style="edgeStyle=orthogonalEdgeStyle;rounded=0;orthogonalLoop=1;jettySize=auto;html=1;" edge="1" parent="1" source="5NVZFzIgTWXD4TzpRUED-118" target="5NVZFzIgTWXD4TzpRUED-116">
          <mxGeometry relative="1" as="geometry" />
        </mxCell>
        <mxCell id="5NVZFzIgTWXD4TzpRUED-118" value="27" style="rhombus;whiteSpace=wrap;html=1;" vertex="1" parent="1">
          <mxGeometry x="-731.25" y="2395" width="112.5" height="50" as="geometry" />
        </mxCell>
        <mxCell id="5NVZFzIgTWXD4TzpRUED-231" value="" style="edgeStyle=orthogonalEdgeStyle;rounded=0;orthogonalLoop=1;jettySize=auto;html=1;" edge="1" parent="1" source="5NVZFzIgTWXD4TzpRUED-119" target="5NVZFzIgTWXD4TzpRUED-120">
          <mxGeometry relative="1" as="geometry" />
        </mxCell>
        <mxCell id="5NVZFzIgTWXD4TzpRUED-119" value="&lt;div&gt;&lt;br&gt;&lt;/div&gt;&lt;div&gt;&lt;table style=&quot;font-family: &amp;quot;Times New Roman&amp;quot;; font-size: medium; text-align: start;&quot;&gt;&lt;tbody&gt;&lt;tr&gt;&lt;td&gt;twenty-eight&lt;/td&gt;&lt;/tr&gt;&lt;/tbody&gt;&lt;/table&gt;&lt;/div&gt;" style="rounded=0;whiteSpace=wrap;html=1;shape=parallelogram;perimeter=parallelogramPerimeter;fixedSize=1;" vertex="1" parent="1">
          <mxGeometry x="-570.0000000000001" y="2490" width="130" height="40" as="geometry" />
        </mxCell>
        <mxCell id="5NVZFzIgTWXD4TzpRUED-234" value="" style="edgeStyle=orthogonalEdgeStyle;rounded=0;orthogonalLoop=1;jettySize=auto;html=1;" edge="1" parent="1" source="5NVZFzIgTWXD4TzpRUED-120" target="5NVZFzIgTWXD4TzpRUED-123">
          <mxGeometry relative="1" as="geometry" />
        </mxCell>
        <mxCell id="5NVZFzIgTWXD4TzpRUED-120" value="" style="ellipse;whiteSpace=wrap;html=1;aspect=fixed;" vertex="1" parent="1">
          <mxGeometry x="-370" y="2500" width="20" height="20" as="geometry" />
        </mxCell>
        <mxCell id="5NVZFzIgTWXD4TzpRUED-136" value="" style="edgeStyle=orthogonalEdgeStyle;rounded=0;orthogonalLoop=1;jettySize=auto;html=1;" edge="1" parent="1" source="5NVZFzIgTWXD4TzpRUED-121" target="5NVZFzIgTWXD4TzpRUED-124">
          <mxGeometry relative="1" as="geometry" />
        </mxCell>
        <mxCell id="5NVZFzIgTWXD4TzpRUED-230" value="" style="edgeStyle=orthogonalEdgeStyle;rounded=0;orthogonalLoop=1;jettySize=auto;html=1;" edge="1" parent="1" source="5NVZFzIgTWXD4TzpRUED-121" target="5NVZFzIgTWXD4TzpRUED-119">
          <mxGeometry relative="1" as="geometry" />
        </mxCell>
        <mxCell id="5NVZFzIgTWXD4TzpRUED-121" value="28" style="rhombus;whiteSpace=wrap;html=1;" vertex="1" parent="1">
          <mxGeometry x="-731.25" y="2485" width="112.5" height="50" as="geometry" />
        </mxCell>
        <mxCell id="5NVZFzIgTWXD4TzpRUED-235" value="" style="edgeStyle=orthogonalEdgeStyle;rounded=0;orthogonalLoop=1;jettySize=auto;html=1;" edge="1" parent="1" source="5NVZFzIgTWXD4TzpRUED-122" target="5NVZFzIgTWXD4TzpRUED-123">
          <mxGeometry relative="1" as="geometry" />
        </mxCell>
        <mxCell id="5NVZFzIgTWXD4TzpRUED-122" value="&#xa;&lt;span style=&quot;color: rgb(0, 0, 0); font-family: &amp;quot;Times New Roman&amp;quot;; font-size: medium; font-style: normal; font-variant-ligatures: normal; font-variant-caps: normal; font-weight: 400; letter-spacing: normal; orphans: 2; text-align: start; text-indent: 0px; text-transform: none; widows: 2; word-spacing: 0px; -webkit-text-stroke-width: 0px; white-space: normal; text-decoration-thickness: initial; text-decoration-style: initial; text-decoration-color: initial; display: inline !important; float: none;&quot;&gt;twenty-nine&lt;/span&gt;&#xa;&#xa;" style="rounded=0;whiteSpace=wrap;html=1;shape=parallelogram;perimeter=parallelogramPerimeter;fixedSize=1;" vertex="1" parent="1">
          <mxGeometry x="-570.0000000000001" y="2580" width="130" height="40" as="geometry" />
        </mxCell>
        <mxCell id="5NVZFzIgTWXD4TzpRUED-237" value="" style="edgeStyle=orthogonalEdgeStyle;rounded=0;orthogonalLoop=1;jettySize=auto;html=1;" edge="1" parent="1" source="5NVZFzIgTWXD4TzpRUED-123" target="5NVZFzIgTWXD4TzpRUED-138">
          <mxGeometry relative="1" as="geometry" />
        </mxCell>
        <mxCell id="5NVZFzIgTWXD4TzpRUED-123" value="" style="ellipse;whiteSpace=wrap;html=1;aspect=fixed;" vertex="1" parent="1">
          <mxGeometry x="-370" y="2590" width="20" height="20" as="geometry" />
        </mxCell>
        <mxCell id="5NVZFzIgTWXD4TzpRUED-140" value="" style="edgeStyle=orthogonalEdgeStyle;rounded=0;orthogonalLoop=1;jettySize=auto;html=1;" edge="1" parent="1" source="5NVZFzIgTWXD4TzpRUED-124" target="5NVZFzIgTWXD4TzpRUED-139">
          <mxGeometry relative="1" as="geometry" />
        </mxCell>
        <mxCell id="5NVZFzIgTWXD4TzpRUED-233" value="" style="edgeStyle=orthogonalEdgeStyle;rounded=0;orthogonalLoop=1;jettySize=auto;html=1;" edge="1" parent="1" source="5NVZFzIgTWXD4TzpRUED-124" target="5NVZFzIgTWXD4TzpRUED-122">
          <mxGeometry relative="1" as="geometry" />
        </mxCell>
        <mxCell id="5NVZFzIgTWXD4TzpRUED-124" value="29" style="rhombus;whiteSpace=wrap;html=1;" vertex="1" parent="1">
          <mxGeometry x="-731.25" y="2575" width="112.5" height="50" as="geometry" />
        </mxCell>
        <mxCell id="5NVZFzIgTWXD4TzpRUED-238" value="" style="edgeStyle=orthogonalEdgeStyle;rounded=0;orthogonalLoop=1;jettySize=auto;html=1;" edge="1" parent="1" source="5NVZFzIgTWXD4TzpRUED-137" target="5NVZFzIgTWXD4TzpRUED-138">
          <mxGeometry relative="1" as="geometry" />
        </mxCell>
        <mxCell id="5NVZFzIgTWXD4TzpRUED-137" value="&#xa;&lt;table style=&quot;color: rgb(0, 0, 0); font-family: &amp;quot;Times New Roman&amp;quot;; font-size: medium; font-style: normal; font-variant-ligatures: normal; font-variant-caps: normal; font-weight: 400; letter-spacing: normal; orphans: 2; text-align: start; text-transform: none; widows: 2; word-spacing: 0px; -webkit-text-stroke-width: 0px; white-space: normal; text-decoration-thickness: initial; text-decoration-style: initial; text-decoration-color: initial;&quot;&gt;&lt;tbody&gt;&lt;tr&gt;&lt;td&gt;&lt;br class=&quot;Apple-interchange-newline&quot;&gt;thirty&lt;/td&gt;&lt;/tr&gt;&lt;/tbody&gt;&lt;/table&gt;&#xa;&#xa;" style="rounded=0;whiteSpace=wrap;html=1;shape=parallelogram;perimeter=parallelogramPerimeter;fixedSize=1;" vertex="1" parent="1">
          <mxGeometry x="-570.0000000000001" y="2670" width="130" height="40" as="geometry" />
        </mxCell>
        <mxCell id="5NVZFzIgTWXD4TzpRUED-255" style="edgeStyle=orthogonalEdgeStyle;rounded=0;orthogonalLoop=1;jettySize=auto;html=1;entryX=1;entryY=0.5;entryDx=0;entryDy=0;" edge="1" parent="1" source="5NVZFzIgTWXD4TzpRUED-138" target="5NVZFzIgTWXD4TzpRUED-251">
          <mxGeometry relative="1" as="geometry">
            <Array as="points">
              <mxPoint x="-360" y="2860" />
            </Array>
          </mxGeometry>
        </mxCell>
        <mxCell id="5NVZFzIgTWXD4TzpRUED-138" value="" style="ellipse;whiteSpace=wrap;html=1;aspect=fixed;" vertex="1" parent="1">
          <mxGeometry x="-370" y="2680" width="20" height="20" as="geometry" />
        </mxCell>
        <mxCell id="5NVZFzIgTWXD4TzpRUED-236" value="" style="edgeStyle=orthogonalEdgeStyle;rounded=0;orthogonalLoop=1;jettySize=auto;html=1;" edge="1" parent="1" source="5NVZFzIgTWXD4TzpRUED-139" target="5NVZFzIgTWXD4TzpRUED-137">
          <mxGeometry relative="1" as="geometry" />
        </mxCell>
        <mxCell id="5NVZFzIgTWXD4TzpRUED-250" value="" style="edgeStyle=orthogonalEdgeStyle;rounded=0;orthogonalLoop=1;jettySize=auto;html=1;" edge="1" parent="1" source="5NVZFzIgTWXD4TzpRUED-139" target="5NVZFzIgTWXD4TzpRUED-249">
          <mxGeometry relative="1" as="geometry" />
        </mxCell>
        <mxCell id="5NVZFzIgTWXD4TzpRUED-139" value="30" style="rhombus;whiteSpace=wrap;html=1;" vertex="1" parent="1">
          <mxGeometry x="-731.25" y="2665" width="112.5" height="50" as="geometry" />
        </mxCell>
        <mxCell id="5NVZFzIgTWXD4TzpRUED-156" value="" style="edgeStyle=orthogonalEdgeStyle;rounded=0;orthogonalLoop=1;jettySize=auto;html=1;" edge="1" source="5NVZFzIgTWXD4TzpRUED-157" target="5NVZFzIgTWXD4TzpRUED-158" parent="1">
          <mxGeometry relative="1" as="geometry" />
        </mxCell>
        <mxCell id="5NVZFzIgTWXD4TzpRUED-161" style="edgeStyle=orthogonalEdgeStyle;rounded=0;orthogonalLoop=1;jettySize=auto;html=1;entryX=0.5;entryY=0;entryDx=0;entryDy=0;" edge="1" parent="1" source="5NVZFzIgTWXD4TzpRUED-157" target="5NVZFzIgTWXD4TzpRUED-12">
          <mxGeometry relative="1" as="geometry" />
        </mxCell>
        <mxCell id="5NVZFzIgTWXD4TzpRUED-157" value="0" style="rhombus;whiteSpace=wrap;html=1;" vertex="1" parent="1">
          <mxGeometry x="-731.25" y="280" width="112.5" height="50" as="geometry" />
        </mxCell>
        <mxCell id="5NVZFzIgTWXD4TzpRUED-247" style="edgeStyle=orthogonalEdgeStyle;rounded=0;orthogonalLoop=1;jettySize=auto;html=1;entryX=0.5;entryY=0;entryDx=0;entryDy=0;" edge="1" parent="1" source="5NVZFzIgTWXD4TzpRUED-158" target="5NVZFzIgTWXD4TzpRUED-162">
          <mxGeometry relative="1" as="geometry" />
        </mxCell>
        <mxCell id="5NVZFzIgTWXD4TzpRUED-158" value="zero" style="rounded=0;whiteSpace=wrap;html=1;shape=parallelogram;fixedSize=1;perimeter=parallelogramPerimeter;" vertex="1" parent="1">
          <mxGeometry x="-570" y="285" width="130" height="40" as="geometry" />
        </mxCell>
        <mxCell id="5NVZFzIgTWXD4TzpRUED-165" value="" style="edgeStyle=orthogonalEdgeStyle;rounded=0;orthogonalLoop=1;jettySize=auto;html=1;" edge="1" parent="1" source="5NVZFzIgTWXD4TzpRUED-162" target="5NVZFzIgTWXD4TzpRUED-44">
          <mxGeometry relative="1" as="geometry" />
        </mxCell>
        <mxCell id="5NVZFzIgTWXD4TzpRUED-162" value="" style="ellipse;whiteSpace=wrap;html=1;aspect=fixed;" vertex="1" parent="1">
          <mxGeometry x="-370" y="365" width="20" height="20" as="geometry" />
        </mxCell>
        <mxCell id="5NVZFzIgTWXD4TzpRUED-239" value="&lt;font face=&quot;Sarabun&quot;&gt;End&lt;/font&gt;" style="ellipse;whiteSpace=wrap;html=1;" vertex="1" parent="1">
          <mxGeometry x="-740.0000000000001" y="2910" width="130" height="35" as="geometry" />
        </mxCell>
        <mxCell id="5NVZFzIgTWXD4TzpRUED-253" value="" style="edgeStyle=orthogonalEdgeStyle;rounded=0;orthogonalLoop=1;jettySize=auto;html=1;" edge="1" parent="1" source="5NVZFzIgTWXD4TzpRUED-249" target="5NVZFzIgTWXD4TzpRUED-251">
          <mxGeometry relative="1" as="geometry" />
        </mxCell>
        <mxCell id="5NVZFzIgTWXD4TzpRUED-249" value="Out of range" style="rounded=0;whiteSpace=wrap;html=1;shape=parallelogram;perimeter=parallelogramPerimeter;fixedSize=1;" vertex="1" parent="1">
          <mxGeometry x="-740.0000000000001" y="2760" width="130" height="40" as="geometry" />
        </mxCell>
        <mxCell id="5NVZFzIgTWXD4TzpRUED-254" value="" style="edgeStyle=orthogonalEdgeStyle;rounded=0;orthogonalLoop=1;jettySize=auto;html=1;" edge="1" parent="1" source="5NVZFzIgTWXD4TzpRUED-251" target="5NVZFzIgTWXD4TzpRUED-239">
          <mxGeometry relative="1" as="geometry" />
        </mxCell>
        <mxCell id="5NVZFzIgTWXD4TzpRUED-251" value="" style="ellipse;whiteSpace=wrap;html=1;aspect=fixed;" vertex="1" parent="1">
          <mxGeometry x="-685" y="2850" width="20" height="20" as="geometry" />
        </mxCell>
        <mxCell id="5NVZFzIgTWXD4TzpRUED-256" value="T" style="text;html=1;align=center;verticalAlign=middle;resizable=0;points=[];autosize=1;strokeColor=none;fillColor=none;" vertex="1" parent="1">
          <mxGeometry x="-630" y="270" width="30" height="30" as="geometry" />
        </mxCell>
        <mxCell id="5NVZFzIgTWXD4TzpRUED-257" value="F" style="text;html=1;align=center;verticalAlign=middle;resizable=0;points=[];autosize=1;strokeColor=none;fillColor=none;" vertex="1" parent="1">
          <mxGeometry x="-665" y="320" width="30" height="30" as="geometry" />
        </mxCell>
        <mxCell id="5NVZFzIgTWXD4TzpRUED-258" value="T" style="text;html=1;align=center;verticalAlign=middle;resizable=0;points=[];autosize=1;strokeColor=none;fillColor=none;" vertex="1" parent="1">
          <mxGeometry x="-630" y="420" width="30" height="30" as="geometry" />
        </mxCell>
        <mxCell id="5NVZFzIgTWXD4TzpRUED-259" value="F" style="text;html=1;align=center;verticalAlign=middle;resizable=0;points=[];autosize=1;strokeColor=none;fillColor=none;" vertex="1" parent="1">
          <mxGeometry x="-675" y="460" width="30" height="30" as="geometry" />
        </mxCell>
        <mxCell id="5NVZFzIgTWXD4TzpRUED-260" value="T" style="text;html=1;align=center;verticalAlign=middle;resizable=0;points=[];autosize=1;strokeColor=none;fillColor=none;" vertex="1" parent="1">
          <mxGeometry x="-630" y="490" width="30" height="30" as="geometry" />
        </mxCell>
        <mxCell id="5NVZFzIgTWXD4TzpRUED-261" value="F" style="text;html=1;align=center;verticalAlign=middle;resizable=0;points=[];autosize=1;strokeColor=none;fillColor=none;" vertex="1" parent="1">
          <mxGeometry x="-675" y="535" width="30" height="30" as="geometry" />
        </mxCell>
        <mxCell id="5NVZFzIgTWXD4TzpRUED-262" value="T" style="text;html=1;align=center;verticalAlign=middle;resizable=0;points=[];autosize=1;strokeColor=none;fillColor=none;" vertex="1" parent="1">
          <mxGeometry x="-630" y="550" width="30" height="30" as="geometry" />
        </mxCell>
        <mxCell id="5NVZFzIgTWXD4TzpRUED-263" value="F" style="text;html=1;align=center;verticalAlign=middle;resizable=0;points=[];autosize=1;strokeColor=none;fillColor=none;" vertex="1" parent="1">
          <mxGeometry x="-675" y="605" width="30" height="30" as="geometry" />
        </mxCell>
        <mxCell id="5NVZFzIgTWXD4TzpRUED-264" value="T" style="text;html=1;align=center;verticalAlign=middle;resizable=0;points=[];autosize=1;strokeColor=none;fillColor=none;" vertex="1" parent="1">
          <mxGeometry x="-630" y="620" width="30" height="30" as="geometry" />
        </mxCell>
        <mxCell id="5NVZFzIgTWXD4TzpRUED-265" value="F" style="text;html=1;align=center;verticalAlign=middle;resizable=0;points=[];autosize=1;strokeColor=none;fillColor=none;" vertex="1" parent="1">
          <mxGeometry x="-675" y="675" width="30" height="30" as="geometry" />
        </mxCell>
        <mxCell id="5NVZFzIgTWXD4TzpRUED-266" value="T" style="text;html=1;align=center;verticalAlign=middle;resizable=0;points=[];autosize=1;strokeColor=none;fillColor=none;" vertex="1" parent="1">
          <mxGeometry x="-630" y="350" width="30" height="30" as="geometry" />
        </mxCell>
        <mxCell id="5NVZFzIgTWXD4TzpRUED-267" value="F" style="text;html=1;align=center;verticalAlign=middle;resizable=0;points=[];autosize=1;strokeColor=none;fillColor=none;" vertex="1" parent="1">
          <mxGeometry x="-665" y="390" width="30" height="30" as="geometry" />
        </mxCell>
        <mxCell id="5NVZFzIgTWXD4TzpRUED-268" value="T" style="text;html=1;align=center;verticalAlign=middle;resizable=0;points=[];autosize=1;strokeColor=none;fillColor=none;" vertex="1" parent="1">
          <mxGeometry x="-630" y="690" width="30" height="30" as="geometry" />
        </mxCell>
        <mxCell id="5NVZFzIgTWXD4TzpRUED-269" value="F" style="text;html=1;align=center;verticalAlign=middle;resizable=0;points=[];autosize=1;strokeColor=none;fillColor=none;" vertex="1" parent="1">
          <mxGeometry x="-675" y="745" width="30" height="30" as="geometry" />
        </mxCell>
        <mxCell id="5NVZFzIgTWXD4TzpRUED-270" value="T" style="text;html=1;align=center;verticalAlign=middle;resizable=0;points=[];autosize=1;strokeColor=none;fillColor=none;" vertex="1" parent="1">
          <mxGeometry x="-630" y="760" width="30" height="30" as="geometry" />
        </mxCell>
        <mxCell id="5NVZFzIgTWXD4TzpRUED-271" value="F" style="text;html=1;align=center;verticalAlign=middle;resizable=0;points=[];autosize=1;strokeColor=none;fillColor=none;" vertex="1" parent="1">
          <mxGeometry x="-675" y="815" width="30" height="30" as="geometry" />
        </mxCell>
        <mxCell id="5NVZFzIgTWXD4TzpRUED-272" value="F" style="text;html=1;align=center;verticalAlign=middle;resizable=0;points=[];autosize=1;strokeColor=none;fillColor=none;" vertex="1" parent="1">
          <mxGeometry x="-675" y="890" width="30" height="30" as="geometry" />
        </mxCell>
        <mxCell id="5NVZFzIgTWXD4TzpRUED-273" value="T" style="text;html=1;align=center;verticalAlign=middle;resizable=0;points=[];autosize=1;strokeColor=none;fillColor=none;" vertex="1" parent="1">
          <mxGeometry x="-630" y="835" width="30" height="30" as="geometry" />
        </mxCell>
        <mxCell id="5NVZFzIgTWXD4TzpRUED-274" value="F" style="text;html=1;align=center;verticalAlign=middle;resizable=0;points=[];autosize=1;strokeColor=none;fillColor=none;" vertex="1" parent="1">
          <mxGeometry x="-675" y="975" width="30" height="30" as="geometry" />
        </mxCell>
        <mxCell id="5NVZFzIgTWXD4TzpRUED-275" value="T" style="text;html=1;align=center;verticalAlign=middle;resizable=0;points=[];autosize=1;strokeColor=none;fillColor=none;" vertex="1" parent="1">
          <mxGeometry x="-630" y="920" width="30" height="30" as="geometry" />
        </mxCell>
        <mxCell id="5NVZFzIgTWXD4TzpRUED-276" value="F" style="text;html=1;align=center;verticalAlign=middle;resizable=0;points=[];autosize=1;strokeColor=none;fillColor=none;" vertex="1" parent="1">
          <mxGeometry x="-675" y="1065" width="30" height="30" as="geometry" />
        </mxCell>
        <mxCell id="5NVZFzIgTWXD4TzpRUED-277" value="T" style="text;html=1;align=center;verticalAlign=middle;resizable=0;points=[];autosize=1;strokeColor=none;fillColor=none;" vertex="1" parent="1">
          <mxGeometry x="-630" y="1010" width="30" height="30" as="geometry" />
        </mxCell>
        <mxCell id="5NVZFzIgTWXD4TzpRUED-278" value="F" style="text;html=1;align=center;verticalAlign=middle;resizable=0;points=[];autosize=1;strokeColor=none;fillColor=none;" vertex="1" parent="1">
          <mxGeometry x="-675" y="1150" width="30" height="30" as="geometry" />
        </mxCell>
        <mxCell id="5NVZFzIgTWXD4TzpRUED-279" value="T" style="text;html=1;align=center;verticalAlign=middle;resizable=0;points=[];autosize=1;strokeColor=none;fillColor=none;" vertex="1" parent="1">
          <mxGeometry x="-630" y="1085" width="30" height="30" as="geometry" />
        </mxCell>
        <mxCell id="5NVZFzIgTWXD4TzpRUED-280" value="T" style="text;html=1;align=center;verticalAlign=middle;resizable=0;points=[];autosize=1;strokeColor=none;fillColor=none;" vertex="1" parent="1">
          <mxGeometry x="-630" y="1170" width="30" height="30" as="geometry" />
        </mxCell>
        <mxCell id="5NVZFzIgTWXD4TzpRUED-281" value="F" style="text;html=1;align=center;verticalAlign=middle;resizable=0;points=[];autosize=1;strokeColor=none;fillColor=none;" vertex="1" parent="1">
          <mxGeometry x="-675" y="1235" width="30" height="30" as="geometry" />
        </mxCell>
        <mxCell id="5NVZFzIgTWXD4TzpRUED-282" value="T" style="text;html=1;align=center;verticalAlign=middle;resizable=0;points=[];autosize=1;strokeColor=none;fillColor=none;" vertex="1" parent="1">
          <mxGeometry x="-630" y="1260" width="30" height="30" as="geometry" />
        </mxCell>
        <mxCell id="5NVZFzIgTWXD4TzpRUED-283" value="F" style="text;html=1;align=center;verticalAlign=middle;resizable=0;points=[];autosize=1;strokeColor=none;fillColor=none;" vertex="1" parent="1">
          <mxGeometry x="-675" y="1325" width="30" height="30" as="geometry" />
        </mxCell>
        <mxCell id="5NVZFzIgTWXD4TzpRUED-284" value="T" style="text;html=1;align=center;verticalAlign=middle;resizable=0;points=[];autosize=1;strokeColor=none;fillColor=none;" vertex="1" parent="1">
          <mxGeometry x="-630" y="1340" width="30" height="30" as="geometry" />
        </mxCell>
        <mxCell id="5NVZFzIgTWXD4TzpRUED-285" value="F" style="text;html=1;align=center;verticalAlign=middle;resizable=0;points=[];autosize=1;strokeColor=none;fillColor=none;" vertex="1" parent="1">
          <mxGeometry x="-675" y="1405" width="30" height="30" as="geometry" />
        </mxCell>
        <mxCell id="5NVZFzIgTWXD4TzpRUED-286" value="T" style="text;html=1;align=center;verticalAlign=middle;resizable=0;points=[];autosize=1;strokeColor=none;fillColor=none;" vertex="1" parent="1">
          <mxGeometry x="-630" y="1420" width="30" height="30" as="geometry" />
        </mxCell>
        <mxCell id="5NVZFzIgTWXD4TzpRUED-287" value="F" style="text;html=1;align=center;verticalAlign=middle;resizable=0;points=[];autosize=1;strokeColor=none;fillColor=none;" vertex="1" parent="1">
          <mxGeometry x="-675" y="1485" width="30" height="30" as="geometry" />
        </mxCell>
        <mxCell id="5NVZFzIgTWXD4TzpRUED-288" value="T" style="text;html=1;align=center;verticalAlign=middle;resizable=0;points=[];autosize=1;strokeColor=none;fillColor=none;" vertex="1" parent="1">
          <mxGeometry x="-630" y="1505" width="30" height="30" as="geometry" />
        </mxCell>
        <mxCell id="5NVZFzIgTWXD4TzpRUED-289" value="F" style="text;html=1;align=center;verticalAlign=middle;resizable=0;points=[];autosize=1;strokeColor=none;fillColor=none;" vertex="1" parent="1">
          <mxGeometry x="-675" y="1570" width="30" height="30" as="geometry" />
        </mxCell>
        <mxCell id="5NVZFzIgTWXD4TzpRUED-290" value="T" style="text;html=1;align=center;verticalAlign=middle;resizable=0;points=[];autosize=1;strokeColor=none;fillColor=none;" vertex="1" parent="1">
          <mxGeometry x="-630" y="1585" width="30" height="30" as="geometry" />
        </mxCell>
        <mxCell id="5NVZFzIgTWXD4TzpRUED-291" value="F" style="text;html=1;align=center;verticalAlign=middle;resizable=0;points=[];autosize=1;strokeColor=none;fillColor=none;" vertex="1" parent="1">
          <mxGeometry x="-675" y="1650" width="30" height="30" as="geometry" />
        </mxCell>
        <mxCell id="5NVZFzIgTWXD4TzpRUED-292" value="T" style="text;html=1;align=center;verticalAlign=middle;resizable=0;points=[];autosize=1;strokeColor=none;fillColor=none;" vertex="1" parent="1">
          <mxGeometry x="-630" y="1670" width="30" height="30" as="geometry" />
        </mxCell>
        <mxCell id="5NVZFzIgTWXD4TzpRUED-293" value="F" style="text;html=1;align=center;verticalAlign=middle;resizable=0;points=[];autosize=1;strokeColor=none;fillColor=none;" vertex="1" parent="1">
          <mxGeometry x="-675" y="1735" width="30" height="30" as="geometry" />
        </mxCell>
        <mxCell id="5NVZFzIgTWXD4TzpRUED-294" value="T" style="text;html=1;align=center;verticalAlign=middle;resizable=0;points=[];autosize=1;strokeColor=none;fillColor=none;" vertex="1" parent="1">
          <mxGeometry x="-630" y="1765" width="30" height="30" as="geometry" />
        </mxCell>
        <mxCell id="5NVZFzIgTWXD4TzpRUED-295" value="F" style="text;html=1;align=center;verticalAlign=middle;resizable=0;points=[];autosize=1;strokeColor=none;fillColor=none;" vertex="1" parent="1">
          <mxGeometry x="-675" y="1815" width="30" height="30" as="geometry" />
        </mxCell>
        <mxCell id="5NVZFzIgTWXD4TzpRUED-296" value="T" style="text;html=1;align=center;verticalAlign=middle;resizable=0;points=[];autosize=1;strokeColor=none;fillColor=none;" vertex="1" parent="1">
          <mxGeometry x="-630" y="1840" width="30" height="30" as="geometry" />
        </mxCell>
        <mxCell id="5NVZFzIgTWXD4TzpRUED-297" value="F" style="text;html=1;align=center;verticalAlign=middle;resizable=0;points=[];autosize=1;strokeColor=none;fillColor=none;" vertex="1" parent="1">
          <mxGeometry x="-675" y="1885" width="30" height="30" as="geometry" />
        </mxCell>
        <mxCell id="5NVZFzIgTWXD4TzpRUED-298" value="F" style="text;html=1;align=center;verticalAlign=middle;resizable=0;points=[];autosize=1;strokeColor=none;fillColor=none;" vertex="1" parent="1">
          <mxGeometry x="-675" y="1965" width="30" height="30" as="geometry" />
        </mxCell>
        <mxCell id="5NVZFzIgTWXD4TzpRUED-299" value="T" style="text;html=1;align=center;verticalAlign=middle;resizable=0;points=[];autosize=1;strokeColor=none;fillColor=none;" vertex="1" parent="1">
          <mxGeometry x="-630" y="1910" width="30" height="30" as="geometry" />
        </mxCell>
        <mxCell id="5NVZFzIgTWXD4TzpRUED-300" value="T" style="text;html=1;align=center;verticalAlign=middle;resizable=0;points=[];autosize=1;strokeColor=none;fillColor=none;" vertex="1" parent="1">
          <mxGeometry x="-630" y="1990" width="30" height="30" as="geometry" />
        </mxCell>
        <mxCell id="5NVZFzIgTWXD4TzpRUED-301" value="F" style="text;html=1;align=center;verticalAlign=middle;resizable=0;points=[];autosize=1;strokeColor=none;fillColor=none;" vertex="1" parent="1">
          <mxGeometry x="-675" y="2045" width="30" height="30" as="geometry" />
        </mxCell>
        <mxCell id="5NVZFzIgTWXD4TzpRUED-302" value="T" style="text;html=1;align=center;verticalAlign=middle;resizable=0;points=[];autosize=1;strokeColor=none;fillColor=none;" vertex="1" parent="1">
          <mxGeometry x="-630" y="2075" width="30" height="30" as="geometry" />
        </mxCell>
        <mxCell id="5NVZFzIgTWXD4TzpRUED-303" value="F" style="text;html=1;align=center;verticalAlign=middle;resizable=0;points=[];autosize=1;strokeColor=none;fillColor=none;" vertex="1" parent="1">
          <mxGeometry x="-675" y="2130" width="30" height="30" as="geometry" />
        </mxCell>
        <mxCell id="5NVZFzIgTWXD4TzpRUED-304" value="T" style="text;html=1;align=center;verticalAlign=middle;resizable=0;points=[];autosize=1;strokeColor=none;fillColor=none;" vertex="1" parent="1">
          <mxGeometry x="-630" y="2155" width="30" height="30" as="geometry" />
        </mxCell>
        <mxCell id="5NVZFzIgTWXD4TzpRUED-305" value="F" style="text;html=1;align=center;verticalAlign=middle;resizable=0;points=[];autosize=1;strokeColor=none;fillColor=none;" vertex="1" parent="1">
          <mxGeometry x="-675" y="2215" width="30" height="30" as="geometry" />
        </mxCell>
        <mxCell id="5NVZFzIgTWXD4TzpRUED-306" value="T" style="text;html=1;align=center;verticalAlign=middle;resizable=0;points=[];autosize=1;strokeColor=none;fillColor=none;" vertex="1" parent="1">
          <mxGeometry x="-630" y="2230" width="30" height="30" as="geometry" />
        </mxCell>
        <mxCell id="5NVZFzIgTWXD4TzpRUED-307" value="F" style="text;html=1;align=center;verticalAlign=middle;resizable=0;points=[];autosize=1;strokeColor=none;fillColor=none;" vertex="1" parent="1">
          <mxGeometry x="-675" y="2290" width="30" height="30" as="geometry" />
        </mxCell>
        <mxCell id="5NVZFzIgTWXD4TzpRUED-308" value="T" style="text;html=1;align=center;verticalAlign=middle;resizable=0;points=[];autosize=1;strokeColor=none;fillColor=none;" vertex="1" parent="1">
          <mxGeometry x="-630" y="2310" width="30" height="30" as="geometry" />
        </mxCell>
        <mxCell id="5NVZFzIgTWXD4TzpRUED-309" value="F" style="text;html=1;align=center;verticalAlign=middle;resizable=0;points=[];autosize=1;strokeColor=none;fillColor=none;" vertex="1" parent="1">
          <mxGeometry x="-675" y="2370" width="30" height="30" as="geometry" />
        </mxCell>
        <mxCell id="5NVZFzIgTWXD4TzpRUED-310" value="T" style="text;html=1;align=center;verticalAlign=middle;resizable=0;points=[];autosize=1;strokeColor=none;fillColor=none;" vertex="1" parent="1">
          <mxGeometry x="-630" y="2390" width="30" height="30" as="geometry" />
        </mxCell>
        <mxCell id="5NVZFzIgTWXD4TzpRUED-311" value="F" style="text;html=1;align=center;verticalAlign=middle;resizable=0;points=[];autosize=1;strokeColor=none;fillColor=none;" vertex="1" parent="1">
          <mxGeometry x="-675" y="2460" width="30" height="30" as="geometry" />
        </mxCell>
        <mxCell id="5NVZFzIgTWXD4TzpRUED-312" value="T" style="text;html=1;align=center;verticalAlign=middle;resizable=0;points=[];autosize=1;strokeColor=none;fillColor=none;" vertex="1" parent="1">
          <mxGeometry x="-630" y="2485" width="30" height="30" as="geometry" />
        </mxCell>
        <mxCell id="5NVZFzIgTWXD4TzpRUED-313" value="F" style="text;html=1;align=center;verticalAlign=middle;resizable=0;points=[];autosize=1;strokeColor=none;fillColor=none;" vertex="1" parent="1">
          <mxGeometry x="-675" y="2555" width="30" height="30" as="geometry" />
        </mxCell>
        <mxCell id="5NVZFzIgTWXD4TzpRUED-314" value="T" style="text;html=1;align=center;verticalAlign=middle;resizable=0;points=[];autosize=1;strokeColor=none;fillColor=none;" vertex="1" parent="1">
          <mxGeometry x="-630" y="2570" width="30" height="30" as="geometry" />
        </mxCell>
        <mxCell id="5NVZFzIgTWXD4TzpRUED-315" value="F" style="text;html=1;align=center;verticalAlign=middle;resizable=0;points=[];autosize=1;strokeColor=none;fillColor=none;" vertex="1" parent="1">
          <mxGeometry x="-675" y="2640" width="30" height="30" as="geometry" />
        </mxCell>
        <mxCell id="5NVZFzIgTWXD4TzpRUED-316" value="T" style="text;html=1;align=center;verticalAlign=middle;resizable=0;points=[];autosize=1;strokeColor=none;fillColor=none;" vertex="1" parent="1">
          <mxGeometry x="-630" y="2665" width="30" height="30" as="geometry" />
        </mxCell>
        <mxCell id="5NVZFzIgTWXD4TzpRUED-317" value="F" style="text;html=1;align=center;verticalAlign=middle;resizable=0;points=[];autosize=1;strokeColor=none;fillColor=none;" vertex="1" parent="1">
          <mxGeometry x="-685" y="2720" width="30" height="30" as="geometry" />
        </mxCell>
      </root>
    </mxGraphModel>
  </diagram>
</mxfile>
